M48
;GenerationSoftware,Autodesk,EAGLE,9.6.2*%
;CreationDate,2022-04-26T14:11:43Z*%
FMAT,2
ICI,OFF
METRIC,TZ,000.000
T15C0.350
T14C0.600
T13C0.800
T12C0.813
T11C0.900
T10C0.914
T9C0.991
T8C1.000
T7C1.016
T6C1.300
T5C1.500
T4C2.200
T3C2.800
T2C3.200
T1C3.200
%
G90
M71
T1
X128270Y57150
T2
X136315Y6560
X144380Y35560
X6750Y35560
X136315Y64560
X75565Y6560
X75565Y64560
X14815Y64560
X14815Y6560
T3
X108970Y12700
X96770Y12700
T4
X69760Y65330
X69760Y8330
X90260Y8330
X63500Y38735
X45085Y38735
X45085Y64770
X90260Y65330
T5
X55880Y3960
X46480Y6960
X46480Y13360
X55880Y16360
T6
X26695Y17801
X26695Y7641
X26695Y63521
X26695Y68601
X26695Y48281
X26695Y12721
X26695Y53361
X26695Y58441
X26695Y33041
X26695Y43201
X26695Y38121
X26695Y22881
X26695Y27961
X26695Y2561
T7
X148590Y25400
X148590Y45720
X148590Y43180
X148590Y48260
X148590Y35560
X148590Y40640
X148590Y38100
X148590Y33020
X148590Y30480
X148590Y27940
T8
X105370Y19700
X55880Y31750
X53340Y31750
X102870Y5200
X105370Y5200
X100370Y5200
X50800Y31750
X48260Y31750
X58880Y5360
X60960Y31750
X100370Y19700
X58880Y11760
X58880Y8560
X57785Y67310
X55245Y67310
X52705Y67310
X50165Y67310
X58420Y31750
X58880Y14960
T9
X125730Y36830
X130810Y36830
X128270Y36830
T10
X55880Y26670
X53340Y26670
X53340Y57150
X55880Y57150
T11
X90170Y43180
X90170Y17780
X90170Y15240
X69850Y45720
X69850Y43180
X69850Y38100
X69850Y35560
X90170Y33020
X69850Y33020
X69850Y30480
X69850Y27940
X69850Y25400
X69850Y22860
X90170Y45720
X69850Y20320
X90170Y40640
X90170Y38100
X122495Y5080
X119995Y5080
X117495Y5080
X114995Y5080
X38735Y18475
X38735Y20975
X38735Y23475
X38735Y25975
X69850Y17780
X69850Y15240
X90170Y35560
X90170Y12700
X69850Y40640
X69850Y12700
X90170Y30480
X90170Y27940
X90170Y25400
X90170Y22860
X90170Y20320
T12
X33655Y8255
X33655Y15875
T13
X140335Y12700
X140335Y15240
X140335Y17780
X140335Y20320
T14
X102870Y64770
X105410Y64770
X107950Y64770
X110490Y64770
X113030Y64770
X118110Y64770
X123190Y64770
X125730Y64770
X115570Y64770
X128270Y64770
X130810Y64770
X120650Y64770
X130810Y26670
X128270Y26670
X100330Y64770
X100330Y26670
X97790Y26670
X97790Y64770
T15
X133985Y53340
X133985Y54610
X133350Y39370
X133350Y38100
X133350Y36830
X133350Y35560
X41910Y60325
X138430Y54750
X116840Y18415
X61500Y42005
X57150Y46990
X114300Y56515
X113665Y50165
X105410Y27940
X107950Y27940
X79819Y45911
X97155Y33655
X113665Y39370
X133350Y41910
X117077Y49530
X81280Y41910
X55880Y60960
X99060Y33020
X114300Y38100
X133350Y40640
X116298Y47942
X114935Y45102
X95250Y24130
X110490Y30480
X30480Y53340
X30480Y60960
X93980Y3810
X31115Y43180
X104140Y41910
X42545Y64770
X53975Y19050
X58420Y26670
X55245Y22860
X112042Y4727
X96520Y45720
X123190Y35560
X109220Y45720
X109537Y20638
X120650Y27940
X127000Y27940
X137160Y27940
X109220Y55245
X30480Y67310
X35560Y49530
X36830Y49530
X38100Y49530
X113665Y10160
X40640Y49530
X41910Y49530
X115570Y52705
X81280Y34290
X66040Y1270
X123190Y67310
X110490Y29210
X120650Y24130
X85279Y14159
X46990Y28575
X35560Y25400
X73660Y10795
X85090Y10160
X50800Y15200
X59690Y17780
X31344Y16510
X45720Y36195
X62336Y47096
X73660Y50800
X30480Y35560
X38016Y35476
X45720Y43180
X72390Y52070
X87630Y52070
X96520Y62230
X115570Y60960
X123190Y31750
X96520Y48260
X101600Y48260
X102870Y31750
X101600Y34290
X77470Y45720
X78740Y12700
X58420Y39370
X43180Y26590
X62419Y45531
X74930Y46990
X83185Y45720
X96520Y50800
X99060Y50800
X99060Y40005
X109220Y39370
X114300Y21590
X96520Y49530
X106680Y49530
X76200Y44450
X76200Y19050
X72390Y24130
X32385Y18415
X39520Y16360
X35560Y16654
X63500Y25400
X63500Y24130
X64770Y31750
X66040Y31750
X64770Y24130
X67359Y24179
X38100Y44450
X121285Y36830
X82869Y47944
X128270Y19685
X110848Y42545
X111125Y34925
X121920Y17780
X118110Y54610
X117475Y40640
X132080Y31750
X122555Y54610
X122555Y53340
X122555Y52070
X122555Y50800
X122555Y49530
X122555Y48260
X122555Y46990
X122555Y45720
X122555Y44450
X122555Y43180
X123825Y43180
X125095Y43180
X126365Y43180
X127635Y43180
X128905Y43180
X130175Y43180
X131445Y43180
X132715Y43180
X133985Y43180
X133985Y44450
X133985Y45720
X133985Y46990
X133985Y48260
X133985Y49530
X133985Y50800
X133985Y52070
M30