G04 EAGLE Gerber RS-274X export*
G75*
%MOMM*%
%FSLAX34Y34*%
%LPD*%
%IN*%
%IPPOS*%
%AMOC8*
5,1,8,0,0,1.08239X$1,22.5*%
G01*
%ADD10C,0.254000*%


D10*
X0Y215900D02*
X97Y213686D01*
X386Y211489D01*
X865Y209326D01*
X1532Y207213D01*
X2380Y205166D01*
X3403Y203200D01*
X4594Y201331D01*
X5942Y199573D01*
X7440Y197940D01*
X9073Y196442D01*
X10831Y195094D01*
X12700Y193903D01*
X14666Y192880D01*
X16713Y192032D01*
X18826Y191365D01*
X20989Y190886D01*
X23186Y190597D01*
X25400Y190500D01*
X50800Y190500D01*
X54121Y190355D01*
X57416Y189921D01*
X60661Y189202D01*
X63831Y188202D01*
X66902Y186930D01*
X69850Y185396D01*
X72653Y183610D01*
X75290Y181586D01*
X77741Y179341D01*
X79986Y176890D01*
X82010Y174253D01*
X83796Y171450D01*
X85330Y168502D01*
X86602Y165431D01*
X87602Y162261D01*
X88321Y159016D01*
X88755Y155721D01*
X88900Y152400D01*
X88900Y25400D01*
X88997Y23186D01*
X89286Y20989D01*
X89765Y18826D01*
X90432Y16713D01*
X91280Y14666D01*
X92303Y12700D01*
X93494Y10831D01*
X94842Y9073D01*
X96340Y7440D01*
X97973Y5942D01*
X99731Y4594D01*
X101600Y3403D01*
X103566Y2380D01*
X105613Y1532D01*
X107726Y865D01*
X109889Y386D01*
X112086Y97D01*
X114300Y0D01*
X1397000Y0D01*
X1399214Y97D01*
X1401411Y386D01*
X1403574Y865D01*
X1405687Y1532D01*
X1407735Y2380D01*
X1409700Y3403D01*
X1411569Y4594D01*
X1413327Y5942D01*
X1414961Y7440D01*
X1416458Y9073D01*
X1417806Y10831D01*
X1418997Y12700D01*
X1420020Y14666D01*
X1420868Y16713D01*
X1421535Y18826D01*
X1422014Y20989D01*
X1422303Y23186D01*
X1422400Y25400D01*
X1422400Y152400D01*
X1422545Y155721D01*
X1422979Y159016D01*
X1423698Y162261D01*
X1424698Y165431D01*
X1425970Y168502D01*
X1427504Y171450D01*
X1429290Y174253D01*
X1431314Y176890D01*
X1433559Y179341D01*
X1436010Y181586D01*
X1438647Y183610D01*
X1441450Y185396D01*
X1444398Y186930D01*
X1447469Y188202D01*
X1450639Y189202D01*
X1453884Y189921D01*
X1457179Y190355D01*
X1460500Y190500D01*
X1485900Y190500D01*
X1488114Y190597D01*
X1490311Y190886D01*
X1492474Y191365D01*
X1494587Y192032D01*
X1496635Y192880D01*
X1498600Y193903D01*
X1500469Y195094D01*
X1502227Y196442D01*
X1503861Y197940D01*
X1505358Y199573D01*
X1506706Y201331D01*
X1507897Y203200D01*
X1508920Y205166D01*
X1509768Y207213D01*
X1510435Y209326D01*
X1510914Y211489D01*
X1511203Y213686D01*
X1511300Y215900D01*
X1511300Y495300D01*
X1511203Y497514D01*
X1510914Y499711D01*
X1510435Y501874D01*
X1509768Y503987D01*
X1508920Y506035D01*
X1507897Y508000D01*
X1506706Y509869D01*
X1505358Y511627D01*
X1503861Y513261D01*
X1502227Y514758D01*
X1500469Y516106D01*
X1498600Y517297D01*
X1496635Y518320D01*
X1494587Y519168D01*
X1492474Y519835D01*
X1490311Y520314D01*
X1488114Y520603D01*
X1485900Y520700D01*
X1460500Y520700D01*
X1457179Y520845D01*
X1453884Y521279D01*
X1450639Y521998D01*
X1447469Y522998D01*
X1444398Y524270D01*
X1441450Y525804D01*
X1438647Y527590D01*
X1436010Y529614D01*
X1433559Y531859D01*
X1431314Y534310D01*
X1429290Y536947D01*
X1427504Y539750D01*
X1425970Y542698D01*
X1424698Y545769D01*
X1423698Y548939D01*
X1422979Y552184D01*
X1422545Y555479D01*
X1422400Y558800D01*
X1422400Y685800D01*
X1422303Y688014D01*
X1422014Y690211D01*
X1421535Y692374D01*
X1420868Y694487D01*
X1420020Y696535D01*
X1418997Y698500D01*
X1417806Y700369D01*
X1416458Y702127D01*
X1414961Y703761D01*
X1413327Y705258D01*
X1411569Y706606D01*
X1409700Y707797D01*
X1407735Y708820D01*
X1405687Y709668D01*
X1403574Y710335D01*
X1401411Y710814D01*
X1399214Y711103D01*
X1397000Y711200D01*
X114300Y711200D01*
X112086Y711103D01*
X109889Y710814D01*
X107726Y710335D01*
X105613Y709668D01*
X103566Y708820D01*
X101600Y707797D01*
X99731Y706606D01*
X97973Y705258D01*
X96340Y703761D01*
X94842Y702127D01*
X93494Y700369D01*
X92303Y698500D01*
X91280Y696535D01*
X90432Y694487D01*
X89765Y692374D01*
X89286Y690211D01*
X88997Y688014D01*
X88900Y685800D01*
X88900Y558800D01*
X88755Y555479D01*
X88321Y552184D01*
X87602Y548939D01*
X86602Y545769D01*
X85330Y542698D01*
X83796Y539750D01*
X82010Y536947D01*
X79986Y534310D01*
X77741Y531859D01*
X75290Y529614D01*
X72653Y527590D01*
X69850Y525804D01*
X66902Y524270D01*
X63831Y522998D01*
X60661Y521998D01*
X57416Y521279D01*
X54121Y520845D01*
X50800Y520700D01*
X25400Y520700D01*
X23186Y520603D01*
X20989Y520314D01*
X18826Y519835D01*
X16713Y519168D01*
X14666Y518320D01*
X12700Y517297D01*
X10831Y516106D01*
X9073Y514758D01*
X7440Y513261D01*
X5942Y511627D01*
X4594Y509869D01*
X3403Y508000D01*
X2380Y506035D01*
X1532Y503987D01*
X865Y501874D01*
X386Y499711D01*
X97Y497514D01*
X0Y495300D01*
X0Y215900D01*
X1257300Y25400D02*
X1257348Y24293D01*
X1257493Y23195D01*
X1257733Y22113D01*
X1258066Y21056D01*
X1258490Y20033D01*
X1259001Y19050D01*
X1259597Y18116D01*
X1260271Y17237D01*
X1261020Y16420D01*
X1261837Y15671D01*
X1262716Y14997D01*
X1263650Y14401D01*
X1264633Y13890D01*
X1265656Y13466D01*
X1266713Y13133D01*
X1267795Y12893D01*
X1268893Y12748D01*
X1270000Y12700D01*
X1314450Y12700D01*
X1315557Y12748D01*
X1316655Y12893D01*
X1317737Y13133D01*
X1318794Y13466D01*
X1319817Y13890D01*
X1320800Y14401D01*
X1321734Y14997D01*
X1322613Y15671D01*
X1323430Y16420D01*
X1324179Y17237D01*
X1324853Y18116D01*
X1325449Y19050D01*
X1325960Y20033D01*
X1326384Y21056D01*
X1326717Y22113D01*
X1326957Y23195D01*
X1327102Y24293D01*
X1327150Y25400D01*
X1327150Y57150D01*
X1327102Y58257D01*
X1326957Y59355D01*
X1326717Y60437D01*
X1326384Y61494D01*
X1325960Y62517D01*
X1325449Y63500D01*
X1324853Y64434D01*
X1324179Y65313D01*
X1323430Y66130D01*
X1322613Y66879D01*
X1321734Y67553D01*
X1320800Y68149D01*
X1319817Y68660D01*
X1318794Y69084D01*
X1317737Y69417D01*
X1316655Y69657D01*
X1315557Y69802D01*
X1314450Y69850D01*
X1270000Y69850D01*
X1268893Y69802D01*
X1267795Y69657D01*
X1266713Y69417D01*
X1265656Y69084D01*
X1264633Y68660D01*
X1263650Y68149D01*
X1262716Y67553D01*
X1261837Y66879D01*
X1261020Y66130D01*
X1260271Y65313D01*
X1259597Y64434D01*
X1259001Y63500D01*
X1258490Y62517D01*
X1258066Y61494D01*
X1257733Y60437D01*
X1257493Y59355D01*
X1257348Y58257D01*
X1257300Y57150D01*
X1257300Y25400D01*
X12700Y228600D02*
X12748Y227493D01*
X12893Y226395D01*
X13133Y225313D01*
X13466Y224256D01*
X13890Y223233D01*
X14401Y222250D01*
X14997Y221316D01*
X15671Y220437D01*
X16420Y219620D01*
X17237Y218871D01*
X18116Y218197D01*
X19050Y217601D01*
X20033Y217090D01*
X21056Y216666D01*
X22113Y216333D01*
X23195Y216093D01*
X24293Y215948D01*
X25400Y215900D01*
X88900Y215900D01*
X90007Y215948D01*
X91105Y216093D01*
X92187Y216333D01*
X93244Y216666D01*
X94267Y217090D01*
X95250Y217601D01*
X96184Y218197D01*
X97063Y218871D01*
X97880Y219620D01*
X98629Y220437D01*
X99303Y221316D01*
X99899Y222250D01*
X100410Y223233D01*
X100834Y224256D01*
X101167Y225313D01*
X101407Y226395D01*
X101552Y227493D01*
X101600Y228600D01*
X101600Y304800D01*
X101552Y305907D01*
X101407Y307005D01*
X101167Y308087D01*
X100834Y309144D01*
X100410Y310167D01*
X99899Y311150D01*
X99303Y312084D01*
X98629Y312963D01*
X97880Y313780D01*
X97063Y314529D01*
X96184Y315203D01*
X95250Y315799D01*
X94267Y316310D01*
X93244Y316734D01*
X92187Y317067D01*
X91105Y317307D01*
X90007Y317452D01*
X88900Y317500D01*
X44450Y317500D01*
X43343Y317548D01*
X42245Y317693D01*
X41163Y317933D01*
X40106Y318266D01*
X39083Y318690D01*
X38100Y319201D01*
X37166Y319797D01*
X36287Y320471D01*
X35470Y321220D01*
X34721Y322037D01*
X34047Y322916D01*
X33451Y323850D01*
X32940Y324833D01*
X32516Y325856D01*
X32183Y326913D01*
X31943Y327995D01*
X31798Y329093D01*
X31750Y330200D01*
X31750Y381000D01*
X31798Y382107D01*
X31943Y383205D01*
X32183Y384287D01*
X32516Y385344D01*
X32940Y386367D01*
X33451Y387350D01*
X34047Y388284D01*
X34721Y389163D01*
X35470Y389980D01*
X36287Y390729D01*
X37166Y391403D01*
X38100Y391999D01*
X39083Y392510D01*
X40106Y392934D01*
X41163Y393267D01*
X42245Y393507D01*
X43343Y393652D01*
X44450Y393700D01*
X88900Y393700D01*
X90007Y393748D01*
X91105Y393893D01*
X92187Y394133D01*
X93244Y394466D01*
X94267Y394890D01*
X95250Y395401D01*
X96184Y395997D01*
X97063Y396671D01*
X97880Y397420D01*
X98629Y398237D01*
X99303Y399116D01*
X99899Y400050D01*
X100410Y401033D01*
X100834Y402056D01*
X101167Y403113D01*
X101407Y404195D01*
X101552Y405293D01*
X101600Y406400D01*
X101600Y482600D01*
X101552Y483707D01*
X101407Y484805D01*
X101167Y485887D01*
X100834Y486944D01*
X100410Y487967D01*
X99899Y488950D01*
X99303Y489884D01*
X98629Y490763D01*
X97880Y491580D01*
X97063Y492329D01*
X96184Y493003D01*
X95250Y493599D01*
X94267Y494110D01*
X93244Y494534D01*
X92187Y494867D01*
X91105Y495107D01*
X90007Y495252D01*
X88900Y495300D01*
X25400Y495300D01*
X24293Y495252D01*
X23195Y495107D01*
X22113Y494867D01*
X21056Y494534D01*
X20033Y494110D01*
X19050Y493599D01*
X18116Y493003D01*
X17237Y492329D01*
X16420Y491580D01*
X15671Y490763D01*
X14997Y489884D01*
X14401Y488950D01*
X13890Y487967D01*
X13466Y486944D01*
X13133Y485887D01*
X12893Y484805D01*
X12748Y483707D01*
X12700Y482600D01*
X12700Y304800D01*
X12700Y228600D01*
X83500Y355076D02*
X83432Y354031D01*
X83295Y352992D01*
X83090Y351965D01*
X82819Y350953D01*
X82483Y349961D01*
X82082Y348993D01*
X81618Y348054D01*
X81095Y347146D01*
X80513Y346275D01*
X79875Y345444D01*
X79184Y344657D01*
X78443Y343916D01*
X77656Y343225D01*
X76825Y342588D01*
X75954Y342006D01*
X75046Y341482D01*
X74107Y341018D01*
X73139Y340617D01*
X72147Y340281D01*
X71135Y340010D01*
X70108Y339805D01*
X69069Y339669D01*
X68024Y339600D01*
X66976Y339600D01*
X65931Y339669D01*
X64892Y339805D01*
X63865Y340010D01*
X62853Y340281D01*
X61861Y340617D01*
X60893Y341018D01*
X59954Y341482D01*
X59046Y342006D01*
X58175Y342588D01*
X57344Y343225D01*
X56557Y343916D01*
X55816Y344657D01*
X55125Y345444D01*
X54488Y346275D01*
X53906Y347146D01*
X53382Y348054D01*
X52918Y348993D01*
X52517Y349961D01*
X52181Y350953D01*
X51910Y351965D01*
X51705Y352992D01*
X51569Y354031D01*
X51500Y355076D01*
X51500Y356124D01*
X51569Y357169D01*
X51705Y358208D01*
X51910Y359235D01*
X52181Y360247D01*
X52517Y361239D01*
X52918Y362207D01*
X53382Y363146D01*
X53906Y364054D01*
X54488Y364925D01*
X55125Y365756D01*
X55816Y366543D01*
X56557Y367284D01*
X57344Y367975D01*
X58175Y368613D01*
X59046Y369195D01*
X59954Y369718D01*
X60893Y370182D01*
X61861Y370583D01*
X62853Y370919D01*
X63865Y371190D01*
X64892Y371395D01*
X65931Y371532D01*
X66976Y371600D01*
X68024Y371600D01*
X69069Y371532D01*
X70108Y371395D01*
X71135Y371190D01*
X72147Y370919D01*
X73139Y370583D01*
X74107Y370182D01*
X75046Y369718D01*
X75954Y369195D01*
X76825Y368613D01*
X77656Y367975D01*
X78443Y367284D01*
X79184Y366543D01*
X79875Y365756D01*
X80513Y364925D01*
X81095Y364054D01*
X81618Y363146D01*
X82082Y362207D01*
X82483Y361239D01*
X82819Y360247D01*
X83090Y359235D01*
X83295Y358208D01*
X83432Y357169D01*
X83500Y356124D01*
X83500Y355076D01*
X1459800Y355076D02*
X1459732Y354031D01*
X1459595Y352992D01*
X1459390Y351965D01*
X1459119Y350953D01*
X1458783Y349961D01*
X1458382Y348993D01*
X1457918Y348054D01*
X1457395Y347146D01*
X1456813Y346275D01*
X1456175Y345444D01*
X1455484Y344657D01*
X1454743Y343916D01*
X1453956Y343225D01*
X1453125Y342588D01*
X1452254Y342006D01*
X1451346Y341482D01*
X1450407Y341018D01*
X1449439Y340617D01*
X1448447Y340281D01*
X1447435Y340010D01*
X1446408Y339805D01*
X1445369Y339669D01*
X1444324Y339600D01*
X1443276Y339600D01*
X1442231Y339669D01*
X1441192Y339805D01*
X1440165Y340010D01*
X1439153Y340281D01*
X1438161Y340617D01*
X1437193Y341018D01*
X1436254Y341482D01*
X1435346Y342006D01*
X1434475Y342588D01*
X1433644Y343225D01*
X1432857Y343916D01*
X1432116Y344657D01*
X1431425Y345444D01*
X1430788Y346275D01*
X1430206Y347146D01*
X1429682Y348054D01*
X1429218Y348993D01*
X1428817Y349961D01*
X1428481Y350953D01*
X1428210Y351965D01*
X1428005Y352992D01*
X1427869Y354031D01*
X1427800Y355076D01*
X1427800Y356124D01*
X1427869Y357169D01*
X1428005Y358208D01*
X1428210Y359235D01*
X1428481Y360247D01*
X1428817Y361239D01*
X1429218Y362207D01*
X1429682Y363146D01*
X1430206Y364054D01*
X1430788Y364925D01*
X1431425Y365756D01*
X1432116Y366543D01*
X1432857Y367284D01*
X1433644Y367975D01*
X1434475Y368613D01*
X1435346Y369195D01*
X1436254Y369718D01*
X1437193Y370182D01*
X1438161Y370583D01*
X1439153Y370919D01*
X1440165Y371190D01*
X1441192Y371395D01*
X1442231Y371532D01*
X1443276Y371600D01*
X1444324Y371600D01*
X1445369Y371532D01*
X1446408Y371395D01*
X1447435Y371190D01*
X1448447Y370919D01*
X1449439Y370583D01*
X1450407Y370182D01*
X1451346Y369718D01*
X1452254Y369195D01*
X1453125Y368613D01*
X1453956Y367975D01*
X1454743Y367284D01*
X1455484Y366543D01*
X1456175Y365756D01*
X1456813Y364925D01*
X1457395Y364054D01*
X1457918Y363146D01*
X1458382Y362207D01*
X1458783Y361239D01*
X1459119Y360247D01*
X1459390Y359235D01*
X1459595Y358208D01*
X1459732Y357169D01*
X1459800Y356124D01*
X1459800Y355076D01*
X1379150Y645076D02*
X1379082Y644031D01*
X1378945Y642992D01*
X1378740Y641965D01*
X1378469Y640953D01*
X1378133Y639961D01*
X1377732Y638993D01*
X1377268Y638054D01*
X1376745Y637146D01*
X1376163Y636275D01*
X1375525Y635444D01*
X1374834Y634657D01*
X1374093Y633916D01*
X1373306Y633225D01*
X1372475Y632588D01*
X1371604Y632006D01*
X1370696Y631482D01*
X1369757Y631018D01*
X1368789Y630617D01*
X1367797Y630281D01*
X1366785Y630010D01*
X1365758Y629805D01*
X1364719Y629669D01*
X1363674Y629600D01*
X1362626Y629600D01*
X1361581Y629669D01*
X1360542Y629805D01*
X1359515Y630010D01*
X1358503Y630281D01*
X1357511Y630617D01*
X1356543Y631018D01*
X1355604Y631482D01*
X1354696Y632006D01*
X1353825Y632588D01*
X1352994Y633225D01*
X1352207Y633916D01*
X1351466Y634657D01*
X1350775Y635444D01*
X1350138Y636275D01*
X1349556Y637146D01*
X1349032Y638054D01*
X1348568Y638993D01*
X1348167Y639961D01*
X1347831Y640953D01*
X1347560Y641965D01*
X1347355Y642992D01*
X1347219Y644031D01*
X1347150Y645076D01*
X1347150Y646124D01*
X1347219Y647169D01*
X1347355Y648208D01*
X1347560Y649235D01*
X1347831Y650247D01*
X1348167Y651239D01*
X1348568Y652207D01*
X1349032Y653146D01*
X1349556Y654054D01*
X1350138Y654925D01*
X1350775Y655756D01*
X1351466Y656543D01*
X1352207Y657284D01*
X1352994Y657975D01*
X1353825Y658613D01*
X1354696Y659195D01*
X1355604Y659718D01*
X1356543Y660182D01*
X1357511Y660583D01*
X1358503Y660919D01*
X1359515Y661190D01*
X1360542Y661395D01*
X1361581Y661532D01*
X1362626Y661600D01*
X1363674Y661600D01*
X1364719Y661532D01*
X1365758Y661395D01*
X1366785Y661190D01*
X1367797Y660919D01*
X1368789Y660583D01*
X1369757Y660182D01*
X1370696Y659718D01*
X1371604Y659195D01*
X1372475Y658613D01*
X1373306Y657975D01*
X1374093Y657284D01*
X1374834Y656543D01*
X1375525Y655756D01*
X1376163Y654925D01*
X1376745Y654054D01*
X1377268Y653146D01*
X1377732Y652207D01*
X1378133Y651239D01*
X1378469Y650247D01*
X1378740Y649235D01*
X1378945Y648208D01*
X1379082Y647169D01*
X1379150Y646124D01*
X1379150Y645076D01*
X771650Y65076D02*
X771582Y64031D01*
X771445Y62992D01*
X771240Y61965D01*
X770969Y60953D01*
X770633Y59961D01*
X770232Y58993D01*
X769768Y58054D01*
X769245Y57146D01*
X768663Y56275D01*
X768025Y55444D01*
X767334Y54657D01*
X766593Y53916D01*
X765806Y53225D01*
X764975Y52588D01*
X764104Y52006D01*
X763196Y51482D01*
X762257Y51018D01*
X761289Y50617D01*
X760297Y50281D01*
X759285Y50010D01*
X758258Y49805D01*
X757219Y49669D01*
X756174Y49600D01*
X755126Y49600D01*
X754081Y49669D01*
X753042Y49805D01*
X752015Y50010D01*
X751003Y50281D01*
X750011Y50617D01*
X749043Y51018D01*
X748104Y51482D01*
X747196Y52006D01*
X746325Y52588D01*
X745494Y53225D01*
X744707Y53916D01*
X743966Y54657D01*
X743275Y55444D01*
X742638Y56275D01*
X742056Y57146D01*
X741532Y58054D01*
X741068Y58993D01*
X740667Y59961D01*
X740331Y60953D01*
X740060Y61965D01*
X739855Y62992D01*
X739719Y64031D01*
X739650Y65076D01*
X739650Y66124D01*
X739719Y67169D01*
X739855Y68208D01*
X740060Y69235D01*
X740331Y70247D01*
X740667Y71239D01*
X741068Y72207D01*
X741532Y73146D01*
X742056Y74054D01*
X742638Y74925D01*
X743275Y75756D01*
X743966Y76543D01*
X744707Y77284D01*
X745494Y77975D01*
X746325Y78613D01*
X747196Y79195D01*
X748104Y79718D01*
X749043Y80182D01*
X750011Y80583D01*
X751003Y80919D01*
X752015Y81190D01*
X753042Y81395D01*
X754081Y81532D01*
X755126Y81600D01*
X756174Y81600D01*
X757219Y81532D01*
X758258Y81395D01*
X759285Y81190D01*
X760297Y80919D01*
X761289Y80583D01*
X762257Y80182D01*
X763196Y79718D01*
X764104Y79195D01*
X764975Y78613D01*
X765806Y77975D01*
X766593Y77284D01*
X767334Y76543D01*
X768025Y75756D01*
X768663Y74925D01*
X769245Y74054D01*
X769768Y73146D01*
X770232Y72207D01*
X770633Y71239D01*
X770969Y70247D01*
X771240Y69235D01*
X771445Y68208D01*
X771582Y67169D01*
X771650Y66124D01*
X771650Y65076D01*
X771650Y645076D02*
X771582Y644031D01*
X771445Y642992D01*
X771240Y641965D01*
X770969Y640953D01*
X770633Y639961D01*
X770232Y638993D01*
X769768Y638054D01*
X769245Y637146D01*
X768663Y636275D01*
X768025Y635444D01*
X767334Y634657D01*
X766593Y633916D01*
X765806Y633225D01*
X764975Y632588D01*
X764104Y632006D01*
X763196Y631482D01*
X762257Y631018D01*
X761289Y630617D01*
X760297Y630281D01*
X759285Y630010D01*
X758258Y629805D01*
X757219Y629669D01*
X756174Y629600D01*
X755126Y629600D01*
X754081Y629669D01*
X753042Y629805D01*
X752015Y630010D01*
X751003Y630281D01*
X750011Y630617D01*
X749043Y631018D01*
X748104Y631482D01*
X747196Y632006D01*
X746325Y632588D01*
X745494Y633225D01*
X744707Y633916D01*
X743966Y634657D01*
X743275Y635444D01*
X742638Y636275D01*
X742056Y637146D01*
X741532Y638054D01*
X741068Y638993D01*
X740667Y639961D01*
X740331Y640953D01*
X740060Y641965D01*
X739855Y642992D01*
X739719Y644031D01*
X739650Y645076D01*
X739650Y646124D01*
X739719Y647169D01*
X739855Y648208D01*
X740060Y649235D01*
X740331Y650247D01*
X740667Y651239D01*
X741068Y652207D01*
X741532Y653146D01*
X742056Y654054D01*
X742638Y654925D01*
X743275Y655756D01*
X743966Y656543D01*
X744707Y657284D01*
X745494Y657975D01*
X746325Y658613D01*
X747196Y659195D01*
X748104Y659718D01*
X749043Y660182D01*
X750011Y660583D01*
X751003Y660919D01*
X752015Y661190D01*
X753042Y661395D01*
X754081Y661532D01*
X755126Y661600D01*
X756174Y661600D01*
X757219Y661532D01*
X758258Y661395D01*
X759285Y661190D01*
X760297Y660919D01*
X761289Y660583D01*
X762257Y660182D01*
X763196Y659718D01*
X764104Y659195D01*
X764975Y658613D01*
X765806Y657975D01*
X766593Y657284D01*
X767334Y656543D01*
X768025Y655756D01*
X768663Y654925D01*
X769245Y654054D01*
X769768Y653146D01*
X770232Y652207D01*
X770633Y651239D01*
X770969Y650247D01*
X771240Y649235D01*
X771445Y648208D01*
X771582Y647169D01*
X771650Y646124D01*
X771650Y645076D01*
X164150Y645076D02*
X164082Y644031D01*
X163945Y642992D01*
X163740Y641965D01*
X163469Y640953D01*
X163133Y639961D01*
X162732Y638993D01*
X162268Y638054D01*
X161745Y637146D01*
X161163Y636275D01*
X160525Y635444D01*
X159834Y634657D01*
X159093Y633916D01*
X158306Y633225D01*
X157475Y632588D01*
X156604Y632006D01*
X155696Y631482D01*
X154757Y631018D01*
X153789Y630617D01*
X152797Y630281D01*
X151785Y630010D01*
X150758Y629805D01*
X149719Y629669D01*
X148674Y629600D01*
X147626Y629600D01*
X146581Y629669D01*
X145542Y629805D01*
X144515Y630010D01*
X143503Y630281D01*
X142511Y630617D01*
X141543Y631018D01*
X140604Y631482D01*
X139696Y632006D01*
X138825Y632588D01*
X137994Y633225D01*
X137207Y633916D01*
X136466Y634657D01*
X135775Y635444D01*
X135138Y636275D01*
X134556Y637146D01*
X134032Y638054D01*
X133568Y638993D01*
X133167Y639961D01*
X132831Y640953D01*
X132560Y641965D01*
X132355Y642992D01*
X132219Y644031D01*
X132150Y645076D01*
X132150Y646124D01*
X132219Y647169D01*
X132355Y648208D01*
X132560Y649235D01*
X132831Y650247D01*
X133167Y651239D01*
X133568Y652207D01*
X134032Y653146D01*
X134556Y654054D01*
X135138Y654925D01*
X135775Y655756D01*
X136466Y656543D01*
X137207Y657284D01*
X137994Y657975D01*
X138825Y658613D01*
X139696Y659195D01*
X140604Y659718D01*
X141543Y660182D01*
X142511Y660583D01*
X143503Y660919D01*
X144515Y661190D01*
X145542Y661395D01*
X146581Y661532D01*
X147626Y661600D01*
X148674Y661600D01*
X149719Y661532D01*
X150758Y661395D01*
X151785Y661190D01*
X152797Y660919D01*
X153789Y660583D01*
X154757Y660182D01*
X155696Y659718D01*
X156604Y659195D01*
X157475Y658613D01*
X158306Y657975D01*
X159093Y657284D01*
X159834Y656543D01*
X160525Y655756D01*
X161163Y654925D01*
X161745Y654054D01*
X162268Y653146D01*
X162732Y652207D01*
X163133Y651239D01*
X163469Y650247D01*
X163740Y649235D01*
X163945Y648208D01*
X164082Y647169D01*
X164150Y646124D01*
X164150Y645076D01*
X164150Y65076D02*
X164082Y64031D01*
X163945Y62992D01*
X163740Y61965D01*
X163469Y60953D01*
X163133Y59961D01*
X162732Y58993D01*
X162268Y58054D01*
X161745Y57146D01*
X161163Y56275D01*
X160525Y55444D01*
X159834Y54657D01*
X159093Y53916D01*
X158306Y53225D01*
X157475Y52588D01*
X156604Y52006D01*
X155696Y51482D01*
X154757Y51018D01*
X153789Y50617D01*
X152797Y50281D01*
X151785Y50010D01*
X150758Y49805D01*
X149719Y49669D01*
X148674Y49600D01*
X147626Y49600D01*
X146581Y49669D01*
X145542Y49805D01*
X144515Y50010D01*
X143503Y50281D01*
X142511Y50617D01*
X141543Y51018D01*
X140604Y51482D01*
X139696Y52006D01*
X138825Y52588D01*
X137994Y53225D01*
X137207Y53916D01*
X136466Y54657D01*
X135775Y55444D01*
X135138Y56275D01*
X134556Y57146D01*
X134032Y58054D01*
X133568Y58993D01*
X133167Y59961D01*
X132831Y60953D01*
X132560Y61965D01*
X132355Y62992D01*
X132219Y64031D01*
X132150Y65076D01*
X132150Y66124D01*
X132219Y67169D01*
X132355Y68208D01*
X132560Y69235D01*
X132831Y70247D01*
X133167Y71239D01*
X133568Y72207D01*
X134032Y73146D01*
X134556Y74054D01*
X135138Y74925D01*
X135775Y75756D01*
X136466Y76543D01*
X137207Y77284D01*
X137994Y77975D01*
X138825Y78613D01*
X139696Y79195D01*
X140604Y79718D01*
X141543Y80182D01*
X142511Y80583D01*
X143503Y80919D01*
X144515Y81190D01*
X145542Y81395D01*
X146581Y81532D01*
X147626Y81600D01*
X148674Y81600D01*
X149719Y81532D01*
X150758Y81395D01*
X151785Y81190D01*
X152797Y80919D01*
X153789Y80583D01*
X154757Y80182D01*
X155696Y79718D01*
X156604Y79195D01*
X157475Y78613D01*
X158306Y77975D01*
X159093Y77284D01*
X159834Y76543D01*
X160525Y75756D01*
X161163Y74925D01*
X161745Y74054D01*
X162268Y73146D01*
X162732Y72207D01*
X163133Y71239D01*
X163469Y70247D01*
X163740Y69235D01*
X163945Y68208D01*
X164082Y67169D01*
X164150Y66124D01*
X164150Y65076D01*
X1379150Y65076D02*
X1379082Y64031D01*
X1378945Y62992D01*
X1378740Y61965D01*
X1378469Y60953D01*
X1378133Y59961D01*
X1377732Y58993D01*
X1377268Y58054D01*
X1376745Y57146D01*
X1376163Y56275D01*
X1375525Y55444D01*
X1374834Y54657D01*
X1374093Y53916D01*
X1373306Y53225D01*
X1372475Y52588D01*
X1371604Y52006D01*
X1370696Y51482D01*
X1369757Y51018D01*
X1368789Y50617D01*
X1367797Y50281D01*
X1366785Y50010D01*
X1365758Y49805D01*
X1364719Y49669D01*
X1363674Y49600D01*
X1362626Y49600D01*
X1361581Y49669D01*
X1360542Y49805D01*
X1359515Y50010D01*
X1358503Y50281D01*
X1357511Y50617D01*
X1356543Y51018D01*
X1355604Y51482D01*
X1354696Y52006D01*
X1353825Y52588D01*
X1352994Y53225D01*
X1352207Y53916D01*
X1351466Y54657D01*
X1350775Y55444D01*
X1350138Y56275D01*
X1349556Y57146D01*
X1349032Y58054D01*
X1348568Y58993D01*
X1348167Y59961D01*
X1347831Y60953D01*
X1347560Y61965D01*
X1347355Y62992D01*
X1347219Y64031D01*
X1347150Y65076D01*
X1347150Y66124D01*
X1347219Y67169D01*
X1347355Y68208D01*
X1347560Y69235D01*
X1347831Y70247D01*
X1348167Y71239D01*
X1348568Y72207D01*
X1349032Y73146D01*
X1349556Y74054D01*
X1350138Y74925D01*
X1350775Y75756D01*
X1351466Y76543D01*
X1352207Y77284D01*
X1352994Y77975D01*
X1353825Y78613D01*
X1354696Y79195D01*
X1355604Y79718D01*
X1356543Y80182D01*
X1357511Y80583D01*
X1358503Y80919D01*
X1359515Y81190D01*
X1360542Y81395D01*
X1361581Y81532D01*
X1362626Y81600D01*
X1363674Y81600D01*
X1364719Y81532D01*
X1365758Y81395D01*
X1366785Y81190D01*
X1367797Y80919D01*
X1368789Y80583D01*
X1369757Y80182D01*
X1370696Y79718D01*
X1371604Y79195D01*
X1372475Y78613D01*
X1373306Y77975D01*
X1374093Y77284D01*
X1374834Y76543D01*
X1375525Y75756D01*
X1376163Y74925D01*
X1376745Y74054D01*
X1377268Y73146D01*
X1377732Y72207D01*
X1378133Y71239D01*
X1378469Y70247D01*
X1378740Y69235D01*
X1378945Y68208D01*
X1379082Y67169D01*
X1379150Y66124D01*
X1379150Y65076D01*
X697168Y642300D02*
X696306Y642368D01*
X695452Y642503D01*
X694612Y642705D01*
X693790Y642972D01*
X692991Y643303D01*
X692221Y643695D01*
X691484Y644147D01*
X690785Y644655D01*
X690127Y645216D01*
X689516Y645827D01*
X688955Y646485D01*
X688447Y647184D01*
X687995Y647921D01*
X687603Y648691D01*
X687272Y649490D01*
X687005Y650312D01*
X686803Y651152D01*
X686668Y652006D01*
X686600Y652868D01*
X686600Y653732D01*
X686668Y654594D01*
X686803Y655448D01*
X687005Y656288D01*
X687272Y657110D01*
X687603Y657909D01*
X687995Y658679D01*
X688447Y659416D01*
X688955Y660115D01*
X689516Y660773D01*
X690127Y661384D01*
X690785Y661945D01*
X691484Y662453D01*
X692221Y662905D01*
X692991Y663297D01*
X693790Y663628D01*
X694612Y663895D01*
X695452Y664097D01*
X696306Y664232D01*
X697168Y664300D01*
X698032Y664300D01*
X698894Y664232D01*
X699748Y664097D01*
X700588Y663895D01*
X701410Y663628D01*
X702209Y663297D01*
X702979Y662905D01*
X703716Y662453D01*
X704415Y661945D01*
X705073Y661384D01*
X705684Y660773D01*
X706245Y660115D01*
X706753Y659416D01*
X707205Y658679D01*
X707597Y657909D01*
X707928Y657110D01*
X708195Y656288D01*
X708397Y655448D01*
X708532Y654594D01*
X708600Y653732D01*
X708600Y652868D01*
X708532Y652006D01*
X708397Y651152D01*
X708195Y650312D01*
X707928Y649490D01*
X707597Y648691D01*
X707205Y647921D01*
X706753Y647184D01*
X706245Y646485D01*
X705684Y645827D01*
X705073Y645216D01*
X704415Y644655D01*
X703716Y644147D01*
X702979Y643695D01*
X702209Y643303D01*
X701410Y642972D01*
X700588Y642705D01*
X699748Y642503D01*
X698894Y642368D01*
X698032Y642300D01*
X697168Y642300D01*
X697168Y72300D02*
X696306Y72368D01*
X695452Y72503D01*
X694612Y72705D01*
X693790Y72972D01*
X692991Y73303D01*
X692221Y73695D01*
X691484Y74147D01*
X690785Y74655D01*
X690127Y75216D01*
X689516Y75827D01*
X688955Y76485D01*
X688447Y77184D01*
X687995Y77921D01*
X687603Y78691D01*
X687272Y79490D01*
X687005Y80312D01*
X686803Y81152D01*
X686668Y82006D01*
X686600Y82868D01*
X686600Y83732D01*
X686668Y84594D01*
X686803Y85448D01*
X687005Y86288D01*
X687272Y87110D01*
X687603Y87909D01*
X687995Y88679D01*
X688447Y89416D01*
X688955Y90115D01*
X689516Y90773D01*
X690127Y91384D01*
X690785Y91945D01*
X691484Y92453D01*
X692221Y92905D01*
X692991Y93297D01*
X693790Y93628D01*
X694612Y93895D01*
X695452Y94097D01*
X696306Y94232D01*
X697168Y94300D01*
X698032Y94300D01*
X698894Y94232D01*
X699748Y94097D01*
X700588Y93895D01*
X701410Y93628D01*
X702209Y93297D01*
X702979Y92905D01*
X703716Y92453D01*
X704415Y91945D01*
X705073Y91384D01*
X705684Y90773D01*
X706245Y90115D01*
X706753Y89416D01*
X707205Y88679D01*
X707597Y87909D01*
X707928Y87110D01*
X708195Y86288D01*
X708397Y85448D01*
X708532Y84594D01*
X708600Y83732D01*
X708600Y82868D01*
X708532Y82006D01*
X708397Y81152D01*
X708195Y80312D01*
X707928Y79490D01*
X707597Y78691D01*
X707205Y77921D01*
X706753Y77184D01*
X706245Y76485D01*
X705684Y75827D01*
X705073Y75216D01*
X704415Y74655D01*
X703716Y74147D01*
X702979Y73695D01*
X702209Y73303D01*
X701410Y72972D01*
X700588Y72705D01*
X699748Y72503D01*
X698894Y72368D01*
X698032Y72300D01*
X697168Y72300D01*
X902168Y72300D02*
X901306Y72368D01*
X900452Y72503D01*
X899612Y72705D01*
X898790Y72972D01*
X897991Y73303D01*
X897221Y73695D01*
X896484Y74147D01*
X895785Y74655D01*
X895127Y75216D01*
X894516Y75827D01*
X893955Y76485D01*
X893447Y77184D01*
X892995Y77921D01*
X892603Y78691D01*
X892272Y79490D01*
X892005Y80312D01*
X891803Y81152D01*
X891668Y82006D01*
X891600Y82868D01*
X891600Y83732D01*
X891668Y84594D01*
X891803Y85448D01*
X892005Y86288D01*
X892272Y87110D01*
X892603Y87909D01*
X892995Y88679D01*
X893447Y89416D01*
X893955Y90115D01*
X894516Y90773D01*
X895127Y91384D01*
X895785Y91945D01*
X896484Y92453D01*
X897221Y92905D01*
X897991Y93297D01*
X898790Y93628D01*
X899612Y93895D01*
X900452Y94097D01*
X901306Y94232D01*
X902168Y94300D01*
X903032Y94300D01*
X903894Y94232D01*
X904748Y94097D01*
X905588Y93895D01*
X906410Y93628D01*
X907209Y93297D01*
X907979Y92905D01*
X908716Y92453D01*
X909415Y91945D01*
X910073Y91384D01*
X910684Y90773D01*
X911245Y90115D01*
X911753Y89416D01*
X912205Y88679D01*
X912597Y87909D01*
X912928Y87110D01*
X913195Y86288D01*
X913397Y85448D01*
X913532Y84594D01*
X913600Y83732D01*
X913600Y82868D01*
X913532Y82006D01*
X913397Y81152D01*
X913195Y80312D01*
X912928Y79490D01*
X912597Y78691D01*
X912205Y77921D01*
X911753Y77184D01*
X911245Y76485D01*
X910684Y75827D01*
X910073Y75216D01*
X909415Y74655D01*
X908716Y74147D01*
X907979Y73695D01*
X907209Y73303D01*
X906410Y72972D01*
X905588Y72705D01*
X904748Y72503D01*
X903894Y72368D01*
X903032Y72300D01*
X902168Y72300D01*
X902168Y642300D02*
X901306Y642368D01*
X900452Y642503D01*
X899612Y642705D01*
X898790Y642972D01*
X897991Y643303D01*
X897221Y643695D01*
X896484Y644147D01*
X895785Y644655D01*
X895127Y645216D01*
X894516Y645827D01*
X893955Y646485D01*
X893447Y647184D01*
X892995Y647921D01*
X892603Y648691D01*
X892272Y649490D01*
X892005Y650312D01*
X891803Y651152D01*
X891668Y652006D01*
X891600Y652868D01*
X891600Y653732D01*
X891668Y654594D01*
X891803Y655448D01*
X892005Y656288D01*
X892272Y657110D01*
X892603Y657909D01*
X892995Y658679D01*
X893447Y659416D01*
X893955Y660115D01*
X894516Y660773D01*
X895127Y661384D01*
X895785Y661945D01*
X896484Y662453D01*
X897221Y662905D01*
X897991Y663297D01*
X898790Y663628D01*
X899612Y663895D01*
X900452Y664097D01*
X901306Y664232D01*
X902168Y664300D01*
X903032Y664300D01*
X903894Y664232D01*
X904748Y664097D01*
X905588Y663895D01*
X906410Y663628D01*
X907209Y663297D01*
X907979Y662905D01*
X908716Y662453D01*
X909415Y661945D01*
X910073Y661384D01*
X910684Y660773D01*
X911245Y660115D01*
X911753Y659416D01*
X912205Y658679D01*
X912597Y657909D01*
X912928Y657110D01*
X913195Y656288D01*
X913397Y655448D01*
X913532Y654594D01*
X913600Y653732D01*
X913600Y652868D01*
X913532Y652006D01*
X913397Y651152D01*
X913195Y650312D01*
X912928Y649490D01*
X912597Y648691D01*
X912205Y647921D01*
X911753Y647184D01*
X911245Y646485D01*
X910684Y645827D01*
X910073Y645216D01*
X909415Y644655D01*
X908716Y644147D01*
X907979Y643695D01*
X907209Y643303D01*
X906410Y642972D01*
X905588Y642705D01*
X904748Y642503D01*
X903894Y642368D01*
X903032Y642300D01*
X902168Y642300D01*
X635432Y398350D02*
X636294Y398282D01*
X637148Y398147D01*
X637988Y397945D01*
X638810Y397678D01*
X639609Y397347D01*
X640379Y396955D01*
X641116Y396503D01*
X641815Y395995D01*
X642473Y395434D01*
X643084Y394823D01*
X643645Y394165D01*
X644153Y393466D01*
X644605Y392729D01*
X644997Y391959D01*
X645328Y391160D01*
X645595Y390338D01*
X645797Y389498D01*
X645932Y388644D01*
X646000Y387782D01*
X646000Y386918D01*
X645932Y386056D01*
X645797Y385202D01*
X645595Y384362D01*
X645328Y383540D01*
X644997Y382741D01*
X644605Y381971D01*
X644153Y381234D01*
X643645Y380535D01*
X643084Y379877D01*
X642473Y379266D01*
X641815Y378705D01*
X641116Y378197D01*
X640379Y377745D01*
X639609Y377353D01*
X638810Y377022D01*
X637988Y376755D01*
X637148Y376553D01*
X636294Y376418D01*
X635432Y376350D01*
X634568Y376350D01*
X633706Y376418D01*
X632852Y376553D01*
X632012Y376755D01*
X631190Y377022D01*
X630391Y377353D01*
X629621Y377745D01*
X628884Y378197D01*
X628185Y378705D01*
X627527Y379266D01*
X626916Y379877D01*
X626355Y380535D01*
X625847Y381234D01*
X625395Y381971D01*
X625003Y382741D01*
X624672Y383540D01*
X624405Y384362D01*
X624203Y385202D01*
X624068Y386056D01*
X624000Y386918D01*
X624000Y387782D01*
X624068Y388644D01*
X624203Y389498D01*
X624405Y390338D01*
X624672Y391160D01*
X625003Y391959D01*
X625395Y392729D01*
X625847Y393466D01*
X626355Y394165D01*
X626916Y394823D01*
X627527Y395434D01*
X628185Y395995D01*
X628884Y396503D01*
X629621Y396955D01*
X630391Y397347D01*
X631190Y397678D01*
X632012Y397945D01*
X632852Y398147D01*
X633706Y398282D01*
X634568Y398350D01*
X635432Y398350D01*
X451282Y398350D02*
X452144Y398282D01*
X452998Y398147D01*
X453838Y397945D01*
X454660Y397678D01*
X455459Y397347D01*
X456229Y396955D01*
X456966Y396503D01*
X457665Y395995D01*
X458323Y395434D01*
X458934Y394823D01*
X459495Y394165D01*
X460003Y393466D01*
X460455Y392729D01*
X460847Y391959D01*
X461178Y391160D01*
X461445Y390338D01*
X461647Y389498D01*
X461782Y388644D01*
X461850Y387782D01*
X461850Y386918D01*
X461782Y386056D01*
X461647Y385202D01*
X461445Y384362D01*
X461178Y383540D01*
X460847Y382741D01*
X460455Y381971D01*
X460003Y381234D01*
X459495Y380535D01*
X458934Y379877D01*
X458323Y379266D01*
X457665Y378705D01*
X456966Y378197D01*
X456229Y377745D01*
X455459Y377353D01*
X454660Y377022D01*
X453838Y376755D01*
X452998Y376553D01*
X452144Y376418D01*
X451282Y376350D01*
X450418Y376350D01*
X449556Y376418D01*
X448702Y376553D01*
X447862Y376755D01*
X447040Y377022D01*
X446241Y377353D01*
X445471Y377745D01*
X444734Y378197D01*
X444035Y378705D01*
X443377Y379266D01*
X442766Y379877D01*
X442205Y380535D01*
X441697Y381234D01*
X441245Y381971D01*
X440853Y382741D01*
X440522Y383540D01*
X440255Y384362D01*
X440053Y385202D01*
X439918Y386056D01*
X439850Y386918D01*
X439850Y387782D01*
X439918Y388644D01*
X440053Y389498D01*
X440255Y390338D01*
X440522Y391160D01*
X440853Y391959D01*
X441245Y392729D01*
X441697Y393466D01*
X442205Y394165D01*
X442766Y394823D01*
X443377Y395434D01*
X444035Y395995D01*
X444734Y396503D01*
X445471Y396955D01*
X446241Y397347D01*
X447040Y397678D01*
X447862Y397945D01*
X448702Y398147D01*
X449556Y398282D01*
X450418Y398350D01*
X451282Y398350D01*
X451282Y658700D02*
X452144Y658632D01*
X452998Y658497D01*
X453838Y658295D01*
X454660Y658028D01*
X455459Y657697D01*
X456229Y657305D01*
X456966Y656853D01*
X457665Y656345D01*
X458323Y655784D01*
X458934Y655173D01*
X459495Y654515D01*
X460003Y653816D01*
X460455Y653079D01*
X460847Y652309D01*
X461178Y651510D01*
X461445Y650688D01*
X461647Y649848D01*
X461782Y648994D01*
X461850Y648132D01*
X461850Y647268D01*
X461782Y646406D01*
X461647Y645552D01*
X461445Y644712D01*
X461178Y643890D01*
X460847Y643091D01*
X460455Y642321D01*
X460003Y641584D01*
X459495Y640885D01*
X458934Y640227D01*
X458323Y639616D01*
X457665Y639055D01*
X456966Y638547D01*
X456229Y638095D01*
X455459Y637703D01*
X454660Y637372D01*
X453838Y637105D01*
X452998Y636903D01*
X452144Y636768D01*
X451282Y636700D01*
X450418Y636700D01*
X449556Y636768D01*
X448702Y636903D01*
X447862Y637105D01*
X447040Y637372D01*
X446241Y637703D01*
X445471Y638095D01*
X444734Y638547D01*
X444035Y639055D01*
X443377Y639616D01*
X442766Y640227D01*
X442205Y640885D01*
X441697Y641584D01*
X441245Y642321D01*
X440853Y643091D01*
X440522Y643890D01*
X440255Y644712D01*
X440053Y645552D01*
X439918Y646406D01*
X439850Y647268D01*
X439850Y648132D01*
X439918Y648994D01*
X440053Y649848D01*
X440255Y650688D01*
X440522Y651510D01*
X440853Y652309D01*
X441245Y653079D01*
X441697Y653816D01*
X442205Y654515D01*
X442766Y655173D01*
X443377Y655784D01*
X444035Y656345D01*
X444734Y656853D01*
X445471Y657305D01*
X446241Y657697D01*
X447040Y658028D01*
X447862Y658295D01*
X448702Y658497D01*
X449556Y658632D01*
X450418Y658700D01*
X451282Y658700D01*
M02*
