G04 EAGLE Gerber RS-274X export*
G75*
%MOMM*%
%FSLAX34Y34*%
%LPD*%
%INSoldermask Top*%
%IPPOS*%
%AMOC8*
5,1,8,0,0,1.08239X$1,22.5*%
G01*
%ADD10C,3.200000*%
%ADD11C,2.200000*%
%ADD12C,1.350000*%
%ADD13R,1.300000X1.300000*%
%ADD14R,1.300000X1.500000*%
%ADD15R,0.800000X1.400000*%
%ADD16R,1.000000X1.600000*%
%ADD17R,1.500000X1.300000*%
%ADD18C,2.500000*%
%ADD19C,2.000000*%
%ADD20R,0.600000X1.200000*%
%ADD21R,4.000000X5.400000*%
%ADD22R,5.400000X4.000000*%
%ADD23R,3.810000X2.794000*%
%ADD24R,1.500000X1.500000*%
%ADD25R,4.200000X4.200000*%
%ADD26R,1.500000X0.900000*%
%ADD27R,1.400000X0.800000*%
%ADD28R,1.600000X1.000000*%
%ADD29C,1.600000*%
%ADD30C,1.371600*%
%ADD31R,1.528000X0.650000*%
%ADD32R,1.200000X2.250000*%
%ADD33R,3.600000X2.200000*%
%ADD34R,1.600000X1.803000*%
%ADD35R,1.200000X1.200000*%
%ADD36R,2.700000X1.400000*%
%ADD37R,1.803000X1.600000*%
%ADD38P,1.319650X8X112.500000*%
%ADD39C,1.500000*%
%ADD40C,1.905000*%
%ADD41C,7.112000*%
%ADD42R,2.500000X1.000000*%
%ADD43R,1.400000X3.000000*%
%ADD44R,3.000000X1.400000*%
%ADD45R,1.168400X1.600200*%
%ADD46R,0.152400X1.828800*%
%ADD47C,1.524000*%
%ADD48C,1.200000*%

G36*
X414284Y624017D02*
X414284Y624017D01*
X414618Y624027D01*
X414695Y624037D01*
X414773Y624041D01*
X415104Y624089D01*
X415436Y624132D01*
X415512Y624149D01*
X415589Y624160D01*
X415914Y624241D01*
X416239Y624315D01*
X416313Y624340D01*
X416389Y624358D01*
X416705Y624470D01*
X417022Y624575D01*
X417093Y624607D01*
X417166Y624633D01*
X417470Y624774D01*
X417775Y624910D01*
X417843Y624948D01*
X417913Y624981D01*
X418202Y625152D01*
X418492Y625316D01*
X418556Y625361D01*
X418623Y625401D01*
X418894Y625598D01*
X419167Y625790D01*
X419226Y625841D01*
X419289Y625887D01*
X419539Y626110D01*
X419792Y626327D01*
X419846Y626383D01*
X419905Y626435D01*
X420132Y626681D01*
X420363Y626922D01*
X420411Y626983D01*
X420464Y627041D01*
X420666Y627306D01*
X420873Y627570D01*
X420915Y627635D01*
X420962Y627697D01*
X421137Y627982D01*
X421318Y628263D01*
X421354Y628333D01*
X421395Y628399D01*
X421541Y628699D01*
X421694Y628997D01*
X421723Y629070D01*
X421757Y629140D01*
X421874Y629453D01*
X421997Y629764D01*
X422018Y629839D01*
X422046Y629912D01*
X422132Y630235D01*
X422224Y630556D01*
X422238Y630633D01*
X422258Y630708D01*
X422313Y631038D01*
X422373Y631367D01*
X422378Y631430D01*
X422393Y631522D01*
X422448Y632344D01*
X422445Y632437D01*
X422449Y632500D01*
X422449Y637750D01*
X422433Y638084D01*
X422423Y638418D01*
X422413Y638495D01*
X422409Y638573D01*
X422361Y638904D01*
X422318Y639236D01*
X422301Y639312D01*
X422290Y639389D01*
X422209Y639714D01*
X422135Y640039D01*
X422110Y640113D01*
X422092Y640189D01*
X421980Y640505D01*
X421875Y640822D01*
X421843Y640893D01*
X421817Y640966D01*
X421676Y641270D01*
X421540Y641575D01*
X421502Y641643D01*
X421469Y641713D01*
X421298Y642002D01*
X421134Y642292D01*
X421089Y642356D01*
X421049Y642423D01*
X420852Y642694D01*
X420660Y642967D01*
X420609Y643026D01*
X420563Y643089D01*
X420340Y643339D01*
X420123Y643592D01*
X420067Y643646D01*
X420015Y643705D01*
X419769Y643932D01*
X419528Y644163D01*
X419467Y644211D01*
X419409Y644264D01*
X419144Y644466D01*
X418881Y644673D01*
X418815Y644715D01*
X418753Y644762D01*
X418468Y644937D01*
X418187Y645118D01*
X418117Y645154D01*
X418051Y645195D01*
X417751Y645341D01*
X417453Y645494D01*
X417380Y645523D01*
X417310Y645557D01*
X416997Y645674D01*
X416686Y645797D01*
X416611Y645818D01*
X416538Y645846D01*
X416215Y645932D01*
X415894Y646024D01*
X415817Y646038D01*
X415742Y646058D01*
X415412Y646113D01*
X415083Y646173D01*
X415020Y646178D01*
X414928Y646193D01*
X414106Y646248D01*
X414013Y646245D01*
X413950Y646249D01*
X392200Y646249D01*
X391866Y646233D01*
X391532Y646223D01*
X391455Y646213D01*
X391377Y646209D01*
X391046Y646161D01*
X390714Y646118D01*
X390638Y646101D01*
X390561Y646090D01*
X390236Y646009D01*
X389911Y645935D01*
X389837Y645910D01*
X389761Y645892D01*
X389445Y645780D01*
X389128Y645675D01*
X389057Y645643D01*
X388984Y645617D01*
X388680Y645476D01*
X388375Y645340D01*
X388307Y645302D01*
X388237Y645269D01*
X387948Y645098D01*
X387658Y644934D01*
X387594Y644889D01*
X387527Y644849D01*
X387256Y644652D01*
X386983Y644460D01*
X386924Y644409D01*
X386861Y644363D01*
X386611Y644140D01*
X386358Y643923D01*
X386304Y643867D01*
X386246Y643815D01*
X386018Y643569D01*
X385787Y643328D01*
X385739Y643267D01*
X385686Y643209D01*
X385484Y642944D01*
X385277Y642681D01*
X385235Y642615D01*
X385188Y642553D01*
X385013Y642268D01*
X384832Y641987D01*
X384796Y641917D01*
X384755Y641851D01*
X384609Y641551D01*
X384456Y641253D01*
X384428Y641180D01*
X384393Y641110D01*
X384276Y640797D01*
X384153Y640486D01*
X384132Y640411D01*
X384104Y640338D01*
X384018Y640015D01*
X383926Y639694D01*
X383912Y639617D01*
X383892Y639542D01*
X383837Y639212D01*
X383777Y638883D01*
X383772Y638820D01*
X383757Y638728D01*
X383702Y637906D01*
X383705Y637813D01*
X383701Y637750D01*
X383701Y632500D01*
X383717Y632166D01*
X383727Y631832D01*
X383737Y631755D01*
X383741Y631677D01*
X383789Y631346D01*
X383832Y631014D01*
X383849Y630938D01*
X383860Y630861D01*
X383941Y630536D01*
X384015Y630211D01*
X384040Y630137D01*
X384058Y630061D01*
X384170Y629745D01*
X384275Y629428D01*
X384307Y629357D01*
X384333Y629284D01*
X384474Y628980D01*
X384610Y628675D01*
X384648Y628607D01*
X384681Y628537D01*
X384852Y628248D01*
X385016Y627958D01*
X385061Y627894D01*
X385101Y627827D01*
X385298Y627556D01*
X385490Y627283D01*
X385541Y627224D01*
X385587Y627161D01*
X385810Y626911D01*
X386027Y626658D01*
X386083Y626604D01*
X386135Y626546D01*
X386381Y626318D01*
X386622Y626087D01*
X386683Y626039D01*
X386741Y625986D01*
X387006Y625784D01*
X387270Y625577D01*
X387335Y625535D01*
X387397Y625488D01*
X387682Y625313D01*
X387963Y625132D01*
X388033Y625096D01*
X388099Y625055D01*
X388399Y624909D01*
X388697Y624756D01*
X388770Y624728D01*
X388840Y624693D01*
X389153Y624576D01*
X389464Y624453D01*
X389539Y624432D01*
X389612Y624404D01*
X389935Y624318D01*
X390256Y624226D01*
X390333Y624212D01*
X390408Y624192D01*
X390738Y624137D01*
X391067Y624077D01*
X391130Y624072D01*
X391222Y624057D01*
X392044Y624002D01*
X392137Y624005D01*
X392200Y624001D01*
X413950Y624001D01*
X414284Y624017D01*
G37*
G36*
X414284Y560517D02*
X414284Y560517D01*
X414618Y560527D01*
X414695Y560537D01*
X414773Y560541D01*
X415104Y560589D01*
X415436Y560632D01*
X415512Y560649D01*
X415589Y560660D01*
X415914Y560741D01*
X416239Y560815D01*
X416313Y560840D01*
X416389Y560858D01*
X416705Y560970D01*
X417022Y561075D01*
X417093Y561107D01*
X417166Y561133D01*
X417470Y561274D01*
X417775Y561410D01*
X417843Y561448D01*
X417913Y561481D01*
X418202Y561652D01*
X418492Y561816D01*
X418556Y561861D01*
X418623Y561901D01*
X418894Y562098D01*
X419167Y562290D01*
X419226Y562341D01*
X419289Y562387D01*
X419539Y562610D01*
X419792Y562827D01*
X419846Y562883D01*
X419905Y562935D01*
X420132Y563181D01*
X420363Y563422D01*
X420411Y563483D01*
X420464Y563541D01*
X420666Y563806D01*
X420873Y564070D01*
X420915Y564135D01*
X420962Y564197D01*
X421137Y564482D01*
X421318Y564763D01*
X421354Y564833D01*
X421395Y564899D01*
X421541Y565199D01*
X421694Y565497D01*
X421723Y565570D01*
X421757Y565640D01*
X421874Y565953D01*
X421997Y566264D01*
X422018Y566339D01*
X422046Y566412D01*
X422132Y566735D01*
X422224Y567056D01*
X422238Y567133D01*
X422258Y567208D01*
X422313Y567538D01*
X422373Y567867D01*
X422378Y567930D01*
X422393Y568022D01*
X422448Y568844D01*
X422445Y568937D01*
X422449Y569000D01*
X422449Y574250D01*
X422433Y574584D01*
X422423Y574918D01*
X422413Y574995D01*
X422409Y575073D01*
X422361Y575404D01*
X422318Y575736D01*
X422301Y575812D01*
X422290Y575889D01*
X422209Y576214D01*
X422135Y576539D01*
X422110Y576613D01*
X422092Y576689D01*
X421980Y577005D01*
X421875Y577322D01*
X421843Y577393D01*
X421817Y577466D01*
X421676Y577770D01*
X421540Y578075D01*
X421502Y578143D01*
X421469Y578213D01*
X421298Y578502D01*
X421134Y578792D01*
X421089Y578856D01*
X421049Y578923D01*
X420852Y579194D01*
X420660Y579467D01*
X420609Y579526D01*
X420563Y579589D01*
X420340Y579839D01*
X420123Y580092D01*
X420067Y580146D01*
X420015Y580205D01*
X419769Y580432D01*
X419528Y580663D01*
X419467Y580711D01*
X419409Y580764D01*
X419144Y580966D01*
X418881Y581173D01*
X418815Y581215D01*
X418753Y581262D01*
X418468Y581437D01*
X418187Y581618D01*
X418117Y581654D01*
X418051Y581695D01*
X417751Y581841D01*
X417453Y581994D01*
X417380Y582023D01*
X417310Y582057D01*
X416997Y582174D01*
X416686Y582297D01*
X416611Y582318D01*
X416538Y582346D01*
X416215Y582432D01*
X415894Y582524D01*
X415817Y582538D01*
X415742Y582558D01*
X415412Y582613D01*
X415083Y582673D01*
X415020Y582678D01*
X414928Y582693D01*
X414106Y582748D01*
X414013Y582745D01*
X413950Y582749D01*
X392200Y582749D01*
X391866Y582733D01*
X391532Y582723D01*
X391455Y582713D01*
X391377Y582709D01*
X391046Y582661D01*
X390714Y582618D01*
X390638Y582601D01*
X390561Y582590D01*
X390236Y582509D01*
X389911Y582435D01*
X389837Y582410D01*
X389761Y582392D01*
X389445Y582280D01*
X389128Y582175D01*
X389057Y582143D01*
X388984Y582117D01*
X388680Y581976D01*
X388375Y581840D01*
X388307Y581802D01*
X388237Y581769D01*
X387948Y581598D01*
X387658Y581434D01*
X387594Y581389D01*
X387527Y581349D01*
X387256Y581152D01*
X386983Y580960D01*
X386924Y580909D01*
X386861Y580863D01*
X386611Y580640D01*
X386358Y580423D01*
X386304Y580367D01*
X386246Y580315D01*
X386018Y580069D01*
X385787Y579828D01*
X385739Y579767D01*
X385686Y579709D01*
X385484Y579444D01*
X385277Y579181D01*
X385235Y579115D01*
X385188Y579053D01*
X385013Y578768D01*
X384832Y578487D01*
X384796Y578417D01*
X384755Y578351D01*
X384609Y578051D01*
X384456Y577753D01*
X384428Y577680D01*
X384393Y577610D01*
X384276Y577297D01*
X384153Y576986D01*
X384132Y576911D01*
X384104Y576838D01*
X384018Y576515D01*
X383926Y576194D01*
X383912Y576117D01*
X383892Y576042D01*
X383837Y575712D01*
X383777Y575383D01*
X383772Y575320D01*
X383757Y575228D01*
X383702Y574406D01*
X383705Y574313D01*
X383701Y574250D01*
X383701Y569000D01*
X383717Y568666D01*
X383727Y568332D01*
X383737Y568255D01*
X383741Y568177D01*
X383789Y567846D01*
X383832Y567514D01*
X383849Y567438D01*
X383860Y567361D01*
X383941Y567036D01*
X384015Y566711D01*
X384040Y566637D01*
X384058Y566561D01*
X384170Y566245D01*
X384275Y565928D01*
X384307Y565857D01*
X384333Y565784D01*
X384474Y565480D01*
X384610Y565175D01*
X384648Y565107D01*
X384681Y565037D01*
X384852Y564748D01*
X385016Y564458D01*
X385061Y564394D01*
X385101Y564327D01*
X385298Y564056D01*
X385490Y563783D01*
X385541Y563724D01*
X385587Y563661D01*
X385810Y563411D01*
X386027Y563158D01*
X386083Y563104D01*
X386135Y563046D01*
X386381Y562818D01*
X386622Y562587D01*
X386683Y562539D01*
X386741Y562486D01*
X387006Y562284D01*
X387270Y562077D01*
X387335Y562035D01*
X387397Y561988D01*
X387682Y561813D01*
X387963Y561632D01*
X388033Y561596D01*
X388099Y561555D01*
X388399Y561409D01*
X388697Y561256D01*
X388770Y561228D01*
X388840Y561193D01*
X389153Y561076D01*
X389464Y560953D01*
X389539Y560932D01*
X389612Y560904D01*
X389935Y560818D01*
X390256Y560726D01*
X390333Y560712D01*
X390408Y560692D01*
X390738Y560637D01*
X391067Y560577D01*
X391130Y560572D01*
X391222Y560557D01*
X392044Y560502D01*
X392137Y560505D01*
X392200Y560501D01*
X413950Y560501D01*
X414284Y560517D01*
G37*
G36*
X1177834Y193517D02*
X1177834Y193517D01*
X1178168Y193527D01*
X1178245Y193537D01*
X1178323Y193541D01*
X1178654Y193589D01*
X1178986Y193632D01*
X1179062Y193649D01*
X1179139Y193660D01*
X1179464Y193741D01*
X1179789Y193815D01*
X1179863Y193840D01*
X1179939Y193858D01*
X1180255Y193970D01*
X1180572Y194075D01*
X1180643Y194107D01*
X1180716Y194133D01*
X1181020Y194274D01*
X1181325Y194410D01*
X1181393Y194448D01*
X1181463Y194481D01*
X1181752Y194652D01*
X1182042Y194816D01*
X1182106Y194861D01*
X1182173Y194901D01*
X1182444Y195098D01*
X1182717Y195290D01*
X1182776Y195341D01*
X1182839Y195387D01*
X1183089Y195610D01*
X1183342Y195827D01*
X1183396Y195883D01*
X1183455Y195935D01*
X1183682Y196181D01*
X1183913Y196422D01*
X1183961Y196483D01*
X1184014Y196541D01*
X1184216Y196806D01*
X1184423Y197070D01*
X1184465Y197135D01*
X1184512Y197197D01*
X1184687Y197482D01*
X1184868Y197763D01*
X1184904Y197833D01*
X1184945Y197899D01*
X1185091Y198199D01*
X1185244Y198497D01*
X1185273Y198570D01*
X1185307Y198640D01*
X1185424Y198953D01*
X1185547Y199264D01*
X1185568Y199339D01*
X1185596Y199412D01*
X1185682Y199735D01*
X1185774Y200056D01*
X1185788Y200133D01*
X1185808Y200208D01*
X1185863Y200538D01*
X1185923Y200867D01*
X1185928Y200930D01*
X1185943Y201022D01*
X1185998Y201844D01*
X1185995Y201937D01*
X1185999Y202000D01*
X1185999Y223750D01*
X1185983Y224084D01*
X1185973Y224418D01*
X1185963Y224495D01*
X1185959Y224573D01*
X1185911Y224904D01*
X1185868Y225236D01*
X1185851Y225312D01*
X1185840Y225389D01*
X1185759Y225714D01*
X1185685Y226039D01*
X1185660Y226113D01*
X1185642Y226189D01*
X1185530Y226505D01*
X1185425Y226822D01*
X1185393Y226893D01*
X1185367Y226966D01*
X1185226Y227270D01*
X1185090Y227575D01*
X1185052Y227643D01*
X1185019Y227713D01*
X1184848Y228002D01*
X1184684Y228292D01*
X1184639Y228356D01*
X1184599Y228423D01*
X1184402Y228694D01*
X1184210Y228967D01*
X1184159Y229026D01*
X1184113Y229089D01*
X1183890Y229339D01*
X1183673Y229592D01*
X1183617Y229646D01*
X1183565Y229705D01*
X1183319Y229932D01*
X1183078Y230163D01*
X1183017Y230211D01*
X1182959Y230264D01*
X1182694Y230466D01*
X1182431Y230673D01*
X1182365Y230715D01*
X1182303Y230762D01*
X1182018Y230937D01*
X1181737Y231118D01*
X1181667Y231154D01*
X1181601Y231195D01*
X1181301Y231341D01*
X1181003Y231494D01*
X1180930Y231523D01*
X1180860Y231557D01*
X1180547Y231674D01*
X1180236Y231797D01*
X1180161Y231818D01*
X1180088Y231846D01*
X1179765Y231932D01*
X1179444Y232024D01*
X1179367Y232038D01*
X1179292Y232058D01*
X1178962Y232113D01*
X1178633Y232173D01*
X1178570Y232178D01*
X1178478Y232193D01*
X1177656Y232248D01*
X1177563Y232245D01*
X1177500Y232249D01*
X1172250Y232249D01*
X1171916Y232233D01*
X1171582Y232223D01*
X1171505Y232213D01*
X1171427Y232209D01*
X1171096Y232161D01*
X1170764Y232118D01*
X1170688Y232101D01*
X1170611Y232090D01*
X1170286Y232009D01*
X1169961Y231935D01*
X1169887Y231910D01*
X1169811Y231892D01*
X1169495Y231780D01*
X1169178Y231675D01*
X1169107Y231643D01*
X1169034Y231617D01*
X1168730Y231476D01*
X1168425Y231340D01*
X1168357Y231302D01*
X1168287Y231269D01*
X1167998Y231098D01*
X1167708Y230934D01*
X1167644Y230889D01*
X1167577Y230849D01*
X1167306Y230652D01*
X1167033Y230460D01*
X1166974Y230409D01*
X1166911Y230363D01*
X1166661Y230140D01*
X1166408Y229923D01*
X1166354Y229867D01*
X1166296Y229815D01*
X1166068Y229569D01*
X1165837Y229328D01*
X1165789Y229267D01*
X1165736Y229209D01*
X1165534Y228944D01*
X1165327Y228681D01*
X1165285Y228615D01*
X1165238Y228553D01*
X1165063Y228268D01*
X1164882Y227987D01*
X1164846Y227917D01*
X1164805Y227851D01*
X1164659Y227551D01*
X1164506Y227253D01*
X1164478Y227180D01*
X1164443Y227110D01*
X1164326Y226797D01*
X1164203Y226486D01*
X1164182Y226411D01*
X1164154Y226338D01*
X1164068Y226015D01*
X1163976Y225694D01*
X1163962Y225617D01*
X1163942Y225542D01*
X1163887Y225212D01*
X1163827Y224883D01*
X1163822Y224820D01*
X1163807Y224728D01*
X1163752Y223906D01*
X1163755Y223813D01*
X1163751Y223750D01*
X1163751Y202000D01*
X1163767Y201666D01*
X1163777Y201332D01*
X1163787Y201255D01*
X1163791Y201177D01*
X1163839Y200846D01*
X1163882Y200514D01*
X1163899Y200438D01*
X1163910Y200361D01*
X1163991Y200036D01*
X1164065Y199711D01*
X1164090Y199637D01*
X1164108Y199561D01*
X1164220Y199245D01*
X1164325Y198928D01*
X1164357Y198857D01*
X1164383Y198784D01*
X1164524Y198480D01*
X1164660Y198175D01*
X1164698Y198107D01*
X1164731Y198037D01*
X1164902Y197748D01*
X1165066Y197458D01*
X1165111Y197394D01*
X1165151Y197327D01*
X1165348Y197056D01*
X1165540Y196783D01*
X1165591Y196724D01*
X1165637Y196661D01*
X1165860Y196411D01*
X1166077Y196158D01*
X1166133Y196104D01*
X1166185Y196046D01*
X1166431Y195818D01*
X1166672Y195587D01*
X1166733Y195539D01*
X1166791Y195486D01*
X1167056Y195284D01*
X1167320Y195077D01*
X1167385Y195035D01*
X1167447Y194988D01*
X1167732Y194813D01*
X1168013Y194632D01*
X1168083Y194596D01*
X1168149Y194555D01*
X1168449Y194409D01*
X1168747Y194256D01*
X1168820Y194228D01*
X1168890Y194193D01*
X1169203Y194076D01*
X1169514Y193953D01*
X1169589Y193932D01*
X1169662Y193904D01*
X1169985Y193818D01*
X1170306Y193726D01*
X1170383Y193712D01*
X1170458Y193692D01*
X1170788Y193637D01*
X1171117Y193577D01*
X1171180Y193572D01*
X1171272Y193557D01*
X1172094Y193502D01*
X1172187Y193505D01*
X1172250Y193501D01*
X1177500Y193501D01*
X1177834Y193517D01*
G37*
G36*
X650784Y123667D02*
X650784Y123667D01*
X651118Y123677D01*
X651195Y123687D01*
X651273Y123691D01*
X651604Y123739D01*
X651936Y123782D01*
X652012Y123799D01*
X652089Y123810D01*
X652414Y123891D01*
X652739Y123965D01*
X652813Y123990D01*
X652889Y124008D01*
X653205Y124120D01*
X653522Y124225D01*
X653593Y124257D01*
X653666Y124283D01*
X653970Y124424D01*
X654275Y124560D01*
X654343Y124598D01*
X654413Y124631D01*
X654702Y124802D01*
X654992Y124966D01*
X655056Y125011D01*
X655123Y125051D01*
X655394Y125248D01*
X655667Y125440D01*
X655726Y125491D01*
X655789Y125537D01*
X656039Y125760D01*
X656292Y125977D01*
X656346Y126033D01*
X656405Y126085D01*
X656632Y126331D01*
X656863Y126572D01*
X656911Y126633D01*
X656964Y126691D01*
X657166Y126956D01*
X657373Y127220D01*
X657415Y127285D01*
X657462Y127347D01*
X657637Y127632D01*
X657818Y127913D01*
X657854Y127983D01*
X657895Y128049D01*
X658041Y128349D01*
X658194Y128647D01*
X658223Y128720D01*
X658257Y128790D01*
X658374Y129103D01*
X658497Y129414D01*
X658518Y129489D01*
X658546Y129562D01*
X658632Y129885D01*
X658724Y130206D01*
X658738Y130283D01*
X658758Y130358D01*
X658813Y130688D01*
X658873Y131017D01*
X658878Y131080D01*
X658893Y131172D01*
X658948Y131994D01*
X658945Y132087D01*
X658949Y132150D01*
X658949Y153900D01*
X658933Y154234D01*
X658923Y154568D01*
X658913Y154645D01*
X658909Y154723D01*
X658861Y155054D01*
X658818Y155386D01*
X658801Y155462D01*
X658790Y155539D01*
X658709Y155864D01*
X658635Y156189D01*
X658610Y156263D01*
X658592Y156339D01*
X658480Y156655D01*
X658375Y156972D01*
X658343Y157043D01*
X658317Y157116D01*
X658176Y157420D01*
X658040Y157725D01*
X658002Y157793D01*
X657969Y157863D01*
X657798Y158152D01*
X657634Y158442D01*
X657589Y158506D01*
X657549Y158573D01*
X657352Y158844D01*
X657160Y159117D01*
X657109Y159176D01*
X657063Y159239D01*
X656840Y159489D01*
X656623Y159742D01*
X656567Y159796D01*
X656515Y159855D01*
X656269Y160082D01*
X656028Y160313D01*
X655967Y160361D01*
X655909Y160414D01*
X655644Y160616D01*
X655381Y160823D01*
X655315Y160865D01*
X655253Y160912D01*
X654968Y161087D01*
X654687Y161268D01*
X654617Y161304D01*
X654551Y161345D01*
X654251Y161491D01*
X653953Y161644D01*
X653880Y161673D01*
X653810Y161707D01*
X653497Y161824D01*
X653186Y161947D01*
X653111Y161968D01*
X653038Y161996D01*
X652715Y162082D01*
X652394Y162174D01*
X652317Y162188D01*
X652242Y162208D01*
X651912Y162263D01*
X651583Y162323D01*
X651520Y162328D01*
X651428Y162343D01*
X650606Y162398D01*
X650513Y162395D01*
X650450Y162399D01*
X645200Y162399D01*
X644866Y162383D01*
X644532Y162373D01*
X644455Y162363D01*
X644377Y162359D01*
X644046Y162311D01*
X643714Y162268D01*
X643638Y162251D01*
X643561Y162240D01*
X643236Y162159D01*
X642911Y162085D01*
X642837Y162060D01*
X642761Y162042D01*
X642445Y161930D01*
X642128Y161825D01*
X642057Y161793D01*
X641984Y161767D01*
X641680Y161626D01*
X641375Y161490D01*
X641307Y161452D01*
X641237Y161419D01*
X640948Y161248D01*
X640658Y161084D01*
X640594Y161039D01*
X640527Y160999D01*
X640256Y160802D01*
X639983Y160610D01*
X639924Y160559D01*
X639861Y160513D01*
X639611Y160290D01*
X639358Y160073D01*
X639304Y160017D01*
X639246Y159965D01*
X639018Y159719D01*
X638787Y159478D01*
X638739Y159417D01*
X638686Y159359D01*
X638484Y159094D01*
X638277Y158831D01*
X638235Y158765D01*
X638188Y158703D01*
X638013Y158418D01*
X637832Y158137D01*
X637796Y158067D01*
X637755Y158001D01*
X637609Y157701D01*
X637456Y157403D01*
X637428Y157330D01*
X637393Y157260D01*
X637276Y156947D01*
X637153Y156636D01*
X637132Y156561D01*
X637104Y156488D01*
X637018Y156165D01*
X636926Y155844D01*
X636912Y155767D01*
X636892Y155692D01*
X636837Y155362D01*
X636777Y155033D01*
X636772Y154970D01*
X636757Y154878D01*
X636702Y154056D01*
X636705Y153963D01*
X636701Y153900D01*
X636701Y132150D01*
X636717Y131816D01*
X636727Y131482D01*
X636737Y131405D01*
X636741Y131327D01*
X636789Y130996D01*
X636832Y130664D01*
X636849Y130588D01*
X636860Y130511D01*
X636941Y130186D01*
X637015Y129861D01*
X637040Y129787D01*
X637058Y129711D01*
X637170Y129395D01*
X637275Y129078D01*
X637307Y129007D01*
X637333Y128934D01*
X637474Y128630D01*
X637610Y128325D01*
X637648Y128257D01*
X637681Y128187D01*
X637852Y127898D01*
X638016Y127608D01*
X638061Y127544D01*
X638101Y127477D01*
X638298Y127206D01*
X638490Y126933D01*
X638541Y126874D01*
X638587Y126811D01*
X638810Y126561D01*
X639027Y126308D01*
X639083Y126254D01*
X639135Y126196D01*
X639381Y125968D01*
X639622Y125737D01*
X639683Y125689D01*
X639741Y125636D01*
X640006Y125434D01*
X640270Y125227D01*
X640335Y125185D01*
X640397Y125138D01*
X640682Y124963D01*
X640963Y124782D01*
X641033Y124746D01*
X641099Y124705D01*
X641399Y124559D01*
X641697Y124406D01*
X641770Y124378D01*
X641840Y124343D01*
X642153Y124226D01*
X642464Y124103D01*
X642539Y124082D01*
X642612Y124054D01*
X642935Y123968D01*
X643256Y123876D01*
X643333Y123862D01*
X643408Y123842D01*
X643738Y123787D01*
X644067Y123727D01*
X644130Y123722D01*
X644222Y123707D01*
X645044Y123652D01*
X645137Y123655D01*
X645200Y123651D01*
X650450Y123651D01*
X650784Y123667D01*
G37*
G36*
X650784Y22067D02*
X650784Y22067D01*
X651118Y22077D01*
X651195Y22087D01*
X651273Y22091D01*
X651604Y22139D01*
X651936Y22182D01*
X652012Y22199D01*
X652089Y22210D01*
X652414Y22291D01*
X652739Y22365D01*
X652813Y22390D01*
X652889Y22408D01*
X653205Y22520D01*
X653522Y22625D01*
X653593Y22657D01*
X653666Y22683D01*
X653970Y22824D01*
X654275Y22960D01*
X654343Y22998D01*
X654413Y23031D01*
X654702Y23202D01*
X654992Y23366D01*
X655056Y23411D01*
X655123Y23451D01*
X655394Y23648D01*
X655667Y23840D01*
X655726Y23891D01*
X655789Y23937D01*
X656039Y24160D01*
X656292Y24377D01*
X656346Y24433D01*
X656405Y24485D01*
X656632Y24731D01*
X656863Y24972D01*
X656911Y25033D01*
X656964Y25091D01*
X657166Y25356D01*
X657373Y25620D01*
X657415Y25685D01*
X657462Y25747D01*
X657637Y26032D01*
X657818Y26313D01*
X657854Y26383D01*
X657895Y26449D01*
X658041Y26749D01*
X658194Y27047D01*
X658223Y27120D01*
X658257Y27190D01*
X658374Y27503D01*
X658497Y27814D01*
X658518Y27889D01*
X658546Y27962D01*
X658632Y28285D01*
X658724Y28606D01*
X658738Y28683D01*
X658758Y28758D01*
X658813Y29088D01*
X658873Y29417D01*
X658878Y29480D01*
X658893Y29572D01*
X658948Y30394D01*
X658945Y30487D01*
X658949Y30550D01*
X658949Y52300D01*
X658933Y52634D01*
X658923Y52968D01*
X658913Y53045D01*
X658909Y53123D01*
X658861Y53454D01*
X658818Y53786D01*
X658801Y53862D01*
X658790Y53939D01*
X658709Y54264D01*
X658635Y54589D01*
X658610Y54663D01*
X658592Y54739D01*
X658480Y55055D01*
X658375Y55372D01*
X658343Y55443D01*
X658317Y55516D01*
X658176Y55820D01*
X658040Y56125D01*
X658002Y56193D01*
X657969Y56263D01*
X657798Y56552D01*
X657634Y56842D01*
X657589Y56906D01*
X657549Y56973D01*
X657352Y57244D01*
X657160Y57517D01*
X657109Y57576D01*
X657063Y57639D01*
X656840Y57889D01*
X656623Y58142D01*
X656567Y58196D01*
X656515Y58255D01*
X656269Y58482D01*
X656028Y58713D01*
X655967Y58761D01*
X655909Y58814D01*
X655644Y59016D01*
X655381Y59223D01*
X655315Y59265D01*
X655253Y59312D01*
X654968Y59487D01*
X654687Y59668D01*
X654617Y59704D01*
X654551Y59745D01*
X654251Y59891D01*
X653953Y60044D01*
X653880Y60073D01*
X653810Y60107D01*
X653497Y60224D01*
X653186Y60347D01*
X653111Y60368D01*
X653038Y60396D01*
X652715Y60482D01*
X652394Y60574D01*
X652317Y60588D01*
X652242Y60608D01*
X651912Y60663D01*
X651583Y60723D01*
X651520Y60728D01*
X651428Y60743D01*
X650606Y60798D01*
X650513Y60795D01*
X650450Y60799D01*
X645200Y60799D01*
X644866Y60783D01*
X644532Y60773D01*
X644455Y60763D01*
X644377Y60759D01*
X644046Y60711D01*
X643714Y60668D01*
X643638Y60651D01*
X643561Y60640D01*
X643236Y60559D01*
X642911Y60485D01*
X642837Y60460D01*
X642761Y60442D01*
X642445Y60330D01*
X642128Y60225D01*
X642057Y60193D01*
X641984Y60167D01*
X641680Y60026D01*
X641375Y59890D01*
X641307Y59852D01*
X641237Y59819D01*
X640948Y59648D01*
X640658Y59484D01*
X640594Y59439D01*
X640527Y59399D01*
X640256Y59202D01*
X639983Y59010D01*
X639924Y58959D01*
X639861Y58913D01*
X639611Y58690D01*
X639358Y58473D01*
X639304Y58417D01*
X639246Y58365D01*
X639018Y58119D01*
X638787Y57878D01*
X638739Y57817D01*
X638686Y57759D01*
X638484Y57494D01*
X638277Y57231D01*
X638235Y57165D01*
X638188Y57103D01*
X638013Y56818D01*
X637832Y56537D01*
X637796Y56467D01*
X637755Y56401D01*
X637609Y56101D01*
X637456Y55803D01*
X637428Y55730D01*
X637393Y55660D01*
X637276Y55347D01*
X637153Y55036D01*
X637132Y54961D01*
X637104Y54888D01*
X637018Y54565D01*
X636926Y54244D01*
X636912Y54167D01*
X636892Y54092D01*
X636837Y53762D01*
X636777Y53433D01*
X636772Y53370D01*
X636757Y53278D01*
X636702Y52456D01*
X636705Y52363D01*
X636701Y52300D01*
X636701Y30550D01*
X636717Y30216D01*
X636727Y29882D01*
X636737Y29805D01*
X636741Y29727D01*
X636789Y29396D01*
X636832Y29064D01*
X636849Y28988D01*
X636860Y28911D01*
X636941Y28586D01*
X637015Y28261D01*
X637040Y28187D01*
X637058Y28111D01*
X637170Y27795D01*
X637275Y27478D01*
X637307Y27407D01*
X637333Y27334D01*
X637474Y27030D01*
X637610Y26725D01*
X637648Y26657D01*
X637681Y26587D01*
X637852Y26298D01*
X638016Y26008D01*
X638061Y25944D01*
X638101Y25877D01*
X638298Y25606D01*
X638490Y25333D01*
X638541Y25274D01*
X638587Y25211D01*
X638810Y24961D01*
X639027Y24708D01*
X639083Y24654D01*
X639135Y24596D01*
X639381Y24368D01*
X639622Y24137D01*
X639683Y24089D01*
X639741Y24036D01*
X640006Y23834D01*
X640270Y23627D01*
X640335Y23585D01*
X640397Y23538D01*
X640682Y23363D01*
X640963Y23182D01*
X641033Y23146D01*
X641099Y23105D01*
X641399Y22959D01*
X641697Y22806D01*
X641770Y22778D01*
X641840Y22743D01*
X642153Y22626D01*
X642464Y22503D01*
X642539Y22482D01*
X642612Y22454D01*
X642935Y22368D01*
X643256Y22276D01*
X643333Y22262D01*
X643408Y22242D01*
X643738Y22187D01*
X644067Y22127D01*
X644130Y22122D01*
X644222Y22107D01*
X645044Y22052D01*
X645137Y22055D01*
X645200Y22051D01*
X650450Y22051D01*
X650784Y22067D01*
G37*
D10*
X67500Y355600D03*
X1443800Y355600D03*
X1363150Y645600D03*
X755650Y65600D03*
X755650Y645600D03*
X148150Y645600D03*
X148150Y65600D03*
X1363150Y65600D03*
D11*
X697600Y653300D03*
X697600Y83300D03*
X902600Y83300D03*
X902600Y653300D03*
D12*
X698500Y127000D02*
X685000Y127000D01*
X901700Y127000D02*
X915200Y127000D01*
X698500Y152400D02*
X685000Y152400D01*
X685000Y177800D02*
X698500Y177800D01*
X698500Y203200D02*
X685000Y203200D01*
X685000Y228600D02*
X698500Y228600D01*
X698500Y254000D02*
X685000Y254000D01*
X685000Y279400D02*
X698500Y279400D01*
X698500Y304800D02*
X685000Y304800D01*
X685000Y330200D02*
X698500Y330200D01*
X698500Y355600D02*
X685000Y355600D01*
X685000Y381000D02*
X698500Y381000D01*
X698500Y406400D02*
X685000Y406400D01*
X685000Y431800D02*
X698500Y431800D01*
X698500Y457200D02*
X685000Y457200D01*
X901700Y152400D02*
X915200Y152400D01*
X915200Y177800D02*
X901700Y177800D01*
X901700Y203200D02*
X915200Y203200D01*
X915200Y228600D02*
X901700Y228600D01*
X901700Y254000D02*
X915200Y254000D01*
X915200Y279400D02*
X901700Y279400D01*
X901700Y304800D02*
X915200Y304800D01*
X915200Y330200D02*
X901700Y330200D01*
X901700Y355600D02*
X915200Y355600D01*
X915200Y381000D02*
X901700Y381000D01*
X901700Y406400D02*
X915200Y406400D01*
X915200Y431800D02*
X901700Y431800D01*
X901700Y457200D02*
X915200Y457200D01*
D13*
X1308100Y647700D03*
X1282700Y647700D03*
X1257300Y647700D03*
X1231900Y647700D03*
X1206500Y647700D03*
X1181100Y647700D03*
X1155700Y647700D03*
X1130300Y647700D03*
X1104900Y647700D03*
X1079500Y647700D03*
X1054100Y647700D03*
X1028700Y647700D03*
X1003300Y647700D03*
X977900Y647700D03*
X977900Y266700D03*
X1003300Y266700D03*
X1282700Y266700D03*
X1308100Y266700D03*
D14*
X1146200Y673100D03*
X1165200Y673100D03*
X1247800Y673100D03*
X1266800Y673100D03*
X955700Y228600D03*
X974700Y228600D03*
X1197000Y673100D03*
X1216000Y673100D03*
X1298600Y673100D03*
X1317600Y673100D03*
D15*
X1189740Y242060D03*
X1159760Y242060D03*
D16*
X1174750Y242050D03*
D17*
X1238250Y206400D03*
X1238250Y225400D03*
X1219200Y206400D03*
X1219200Y225400D03*
D18*
X558800Y163600D03*
X464800Y133600D03*
X464800Y69600D03*
X558800Y39600D03*
D19*
X588800Y53600D03*
X588800Y85600D03*
X588800Y117600D03*
X588800Y149600D03*
D15*
X662690Y172210D03*
X632710Y172210D03*
D16*
X647700Y172200D03*
D17*
X628650Y193700D03*
X628650Y212700D03*
X660400Y193700D03*
X660400Y212700D03*
D15*
X662690Y70610D03*
X632710Y70610D03*
D16*
X647700Y70600D03*
D17*
X628650Y92100D03*
X628650Y111100D03*
X660400Y92100D03*
X660400Y111100D03*
D20*
X527050Y237550D03*
X514350Y237550D03*
X501650Y237550D03*
X488950Y237550D03*
X488950Y181550D03*
X501650Y181550D03*
X514350Y181550D03*
X527050Y181550D03*
D17*
X488950Y276200D03*
X488950Y257200D03*
X508000Y276200D03*
X508000Y257200D03*
D19*
X266950Y76411D03*
X266950Y25611D03*
D21*
X423000Y120650D03*
X339000Y120650D03*
D19*
X266950Y279611D03*
X266950Y228811D03*
D22*
X400050Y397600D03*
X400050Y313600D03*
D23*
X341630Y354076D03*
X341630Y425450D03*
D14*
X320700Y279400D03*
X339700Y279400D03*
X339700Y330200D03*
X320700Y330200D03*
X339700Y304800D03*
X320700Y304800D03*
D24*
X1003700Y52000D03*
X1053700Y52000D03*
X1028700Y52000D03*
X1003700Y197000D03*
X1053700Y197000D03*
D25*
X967700Y127000D03*
X1089700Y127000D03*
D14*
X447700Y266700D03*
X466700Y266700D03*
X447700Y215900D03*
X466700Y215900D03*
X447700Y241300D03*
X466700Y241300D03*
D26*
X1307200Y110500D03*
X1307200Y143500D03*
X1258200Y110500D03*
X1258200Y143500D03*
D14*
X1317600Y88900D03*
X1298600Y88900D03*
X1152500Y158750D03*
X1133500Y158750D03*
D26*
X1307200Y174000D03*
X1307200Y207000D03*
X1258200Y174000D03*
X1258200Y207000D03*
D14*
X1317600Y241300D03*
X1298600Y241300D03*
D27*
X373890Y586490D03*
X373890Y556510D03*
D28*
X373900Y571500D03*
D14*
X320700Y533400D03*
X339700Y533400D03*
D19*
X266950Y432011D03*
X266950Y381211D03*
X266950Y330411D03*
D14*
X339700Y558800D03*
X320700Y558800D03*
X320700Y584200D03*
X339700Y584200D03*
D27*
X373890Y649990D03*
X373890Y620010D03*
D28*
X373900Y635000D03*
D14*
X320700Y609600D03*
X339700Y609600D03*
D19*
X266950Y584411D03*
X266950Y533611D03*
X266950Y482811D03*
D14*
X339700Y635000D03*
X320700Y635000D03*
X320700Y660400D03*
X339700Y660400D03*
D19*
X266950Y178011D03*
X266950Y127211D03*
D17*
X323850Y219050D03*
X323850Y200050D03*
X323850Y257150D03*
X323850Y238150D03*
D29*
X1224950Y50800D03*
X1199950Y50800D03*
X1174950Y50800D03*
X1149950Y50800D03*
X387350Y184750D03*
X387350Y209750D03*
X387350Y234750D03*
X387350Y259750D03*
D14*
X1152500Y139700D03*
X1133500Y139700D03*
X1152500Y120650D03*
X1133500Y120650D03*
X955700Y38100D03*
X974700Y38100D03*
X1101700Y38100D03*
X1082700Y38100D03*
D17*
X1054100Y238100D03*
X1054100Y219100D03*
X952500Y60350D03*
X952500Y79350D03*
X1104900Y66700D03*
X1104900Y85700D03*
X1003300Y219100D03*
X1003300Y238100D03*
D30*
X558800Y564642D02*
X558800Y578358D01*
X533400Y578358D02*
X533400Y564642D01*
X558800Y273558D02*
X558800Y259842D01*
X533400Y259842D02*
X533400Y273558D01*
D14*
X504800Y19050D03*
X485800Y19050D03*
D31*
X662110Y234950D03*
X662110Y247650D03*
X662110Y260350D03*
X662110Y273050D03*
X607890Y273050D03*
X607890Y260350D03*
X607890Y247650D03*
X607890Y234950D03*
D14*
X447700Y190500D03*
X466700Y190500D03*
D17*
X596900Y193700D03*
X596900Y212700D03*
X565150Y193700D03*
X565150Y212700D03*
D32*
X370700Y470650D03*
X393700Y470650D03*
X416700Y470650D03*
D33*
X393700Y532640D03*
D14*
X415900Y444500D03*
X396900Y444500D03*
X339700Y508000D03*
X320700Y508000D03*
X339700Y482600D03*
X320700Y482600D03*
D34*
X350770Y457200D03*
X322330Y457200D03*
D17*
X349250Y200050D03*
X349250Y219050D03*
D35*
X1018200Y685800D03*
X1039200Y685800D03*
D14*
X1082650Y685800D03*
X1063650Y685800D03*
D36*
X366300Y50800D03*
X433800Y70800D03*
X433800Y30800D03*
X366300Y70800D03*
X366300Y30800D03*
D37*
X609600Y90420D03*
X609600Y61980D03*
X609600Y112780D03*
X609600Y141220D03*
D38*
X336550Y82550D03*
X336550Y158750D03*
D11*
X635000Y387350D03*
X450850Y387350D03*
D24*
X482600Y317500D03*
D39*
X508000Y317500D03*
X533400Y317500D03*
X558800Y317500D03*
X584200Y317500D03*
D24*
X501650Y673100D03*
D39*
X527050Y673100D03*
X552450Y673100D03*
X577850Y673100D03*
X609600Y317500D03*
D11*
X450850Y647700D03*
D14*
X403200Y673100D03*
X384200Y673100D03*
D40*
X1257300Y377825D02*
X1257300Y358775D01*
X1282700Y358775D02*
X1282700Y377825D01*
X1308100Y377825D02*
X1308100Y358775D01*
D41*
X1282700Y571500D03*
D34*
X747780Y152400D03*
X776220Y152400D03*
X747780Y127000D03*
X776220Y127000D03*
D42*
X533400Y292100D03*
D43*
X831850Y112900D03*
X831850Y64900D03*
D44*
X801500Y609600D03*
X849500Y609600D03*
X1230500Y139700D03*
X1182500Y139700D03*
D43*
X1384300Y547500D03*
X1384300Y595500D03*
D19*
X266950Y686011D03*
X266950Y635211D03*
D45*
X1109980Y685800D03*
X1125220Y685800D03*
D46*
X1117600Y685800D03*
D14*
X1203300Y184150D03*
X1184300Y184150D03*
X1152500Y177800D03*
X1133500Y177800D03*
X1152500Y196850D03*
X1133500Y196850D03*
D35*
X829650Y25400D03*
X808650Y25400D03*
D14*
X746150Y25400D03*
X765150Y25400D03*
D45*
X725170Y25400D03*
X709930Y25400D03*
D46*
X717550Y25400D03*
D47*
X1478280Y482600D02*
X1493520Y482600D01*
X1493520Y457200D02*
X1478280Y457200D01*
X1478280Y431800D02*
X1493520Y431800D01*
X1493520Y406400D02*
X1478280Y406400D01*
X1478280Y381000D02*
X1493520Y381000D01*
X1493520Y355600D02*
X1478280Y355600D01*
X1478280Y330200D02*
X1493520Y330200D01*
X1493520Y304800D02*
X1478280Y304800D01*
X1478280Y279400D02*
X1493520Y279400D01*
X1493520Y254000D02*
X1478280Y254000D01*
D14*
X403200Y603250D03*
X384200Y603250D03*
X320700Y685800D03*
X339700Y685800D03*
D48*
X1403350Y127000D03*
X1403350Y152400D03*
X1403350Y177800D03*
X1403350Y203200D03*
D45*
X1442720Y215900D03*
X1427480Y215900D03*
D46*
X1435100Y215900D03*
M02*
