G04 EAGLE Gerber RS-274X export*
G75*
%MOMM*%
%FSLAX34Y34*%
%LPD*%
%INSolderpaste Top*%
%IPPOS*%
%AMOC8*
5,1,8,0,0,1.08239X$1,22.5*%
G01*
%ADD10R,1.300000X1.500000*%
%ADD11R,0.800000X1.400000*%
%ADD12R,1.500000X1.300000*%
%ADD13R,0.600000X1.200000*%
%ADD14R,4.000000X5.400000*%
%ADD15R,5.400000X4.000000*%
%ADD16R,3.810000X2.794000*%
%ADD17R,1.500000X0.900000*%
%ADD18R,1.400000X0.800000*%
%ADD19R,1.528000X0.650000*%
%ADD20R,1.200000X2.250000*%
%ADD21R,3.600000X2.200000*%
%ADD22R,1.600000X1.803000*%
%ADD23R,1.200000X1.200000*%
%ADD24R,2.700000X1.400000*%
%ADD25R,1.803000X1.600000*%
%ADD26R,2.500000X1.000000*%
%ADD27R,1.400000X3.000000*%
%ADD28R,3.000000X1.400000*%
%ADD29R,1.168400X1.600200*%

G36*
X414504Y625768D02*
X414504Y625768D01*
X414808Y625779D01*
X414863Y625788D01*
X414920Y625791D01*
X415220Y625841D01*
X415520Y625886D01*
X415575Y625901D01*
X415631Y625910D01*
X415924Y625994D01*
X416217Y626072D01*
X416269Y626092D01*
X416324Y626108D01*
X416605Y626223D01*
X416889Y626333D01*
X416939Y626359D01*
X416991Y626380D01*
X417258Y626526D01*
X417527Y626667D01*
X417574Y626699D01*
X417624Y626726D01*
X417873Y626900D01*
X418125Y627070D01*
X418168Y627106D01*
X418214Y627139D01*
X418443Y627339D01*
X418675Y627536D01*
X418713Y627577D01*
X418756Y627615D01*
X418960Y627839D01*
X419169Y628061D01*
X419203Y628106D01*
X419241Y628148D01*
X419419Y628394D01*
X419602Y628637D01*
X419631Y628685D01*
X419664Y628731D01*
X419814Y628995D01*
X419969Y629257D01*
X419992Y629309D01*
X420020Y629358D01*
X420140Y629637D01*
X420265Y629914D01*
X420282Y629968D01*
X420305Y630020D01*
X420393Y630311D01*
X420486Y630600D01*
X420498Y630656D01*
X420514Y630710D01*
X420570Y631008D01*
X420630Y631307D01*
X420634Y631354D01*
X420646Y631418D01*
X420698Y632137D01*
X420696Y632203D01*
X420699Y632250D01*
X420699Y637500D01*
X420682Y637804D01*
X420671Y638108D01*
X420662Y638163D01*
X420659Y638220D01*
X420609Y638520D01*
X420564Y638820D01*
X420549Y638875D01*
X420540Y638931D01*
X420456Y639224D01*
X420378Y639517D01*
X420358Y639569D01*
X420342Y639624D01*
X420227Y639905D01*
X420117Y640189D01*
X420091Y640239D01*
X420070Y640291D01*
X419924Y640558D01*
X419783Y640827D01*
X419751Y640874D01*
X419724Y640924D01*
X419550Y641173D01*
X419380Y641425D01*
X419344Y641468D01*
X419311Y641514D01*
X419111Y641743D01*
X418914Y641975D01*
X418873Y642013D01*
X418835Y642056D01*
X418611Y642260D01*
X418389Y642469D01*
X418344Y642503D01*
X418302Y642541D01*
X418057Y642719D01*
X417813Y642902D01*
X417765Y642931D01*
X417719Y642964D01*
X417455Y643114D01*
X417193Y643269D01*
X417141Y643292D01*
X417092Y643320D01*
X416813Y643440D01*
X416536Y643565D01*
X416482Y643582D01*
X416430Y643605D01*
X416139Y643693D01*
X415850Y643786D01*
X415794Y643798D01*
X415740Y643814D01*
X415442Y643870D01*
X415143Y643930D01*
X415096Y643934D01*
X415032Y643946D01*
X414313Y643998D01*
X414247Y643996D01*
X414200Y643999D01*
X392450Y643999D01*
X392146Y643982D01*
X391842Y643971D01*
X391787Y643962D01*
X391730Y643959D01*
X391430Y643909D01*
X391130Y643864D01*
X391075Y643849D01*
X391020Y643840D01*
X390726Y643756D01*
X390433Y643678D01*
X390381Y643658D01*
X390326Y643642D01*
X390045Y643527D01*
X389761Y643417D01*
X389711Y643391D01*
X389659Y643370D01*
X389392Y643224D01*
X389123Y643083D01*
X389076Y643051D01*
X389026Y643024D01*
X388777Y642850D01*
X388525Y642680D01*
X388482Y642644D01*
X388436Y642611D01*
X388207Y642411D01*
X387975Y642214D01*
X387937Y642173D01*
X387894Y642135D01*
X387690Y641911D01*
X387481Y641689D01*
X387447Y641644D01*
X387409Y641602D01*
X387231Y641357D01*
X387048Y641113D01*
X387019Y641065D01*
X386986Y641019D01*
X386836Y640755D01*
X386681Y640493D01*
X386658Y640441D01*
X386630Y640392D01*
X386510Y640113D01*
X386385Y639836D01*
X386368Y639782D01*
X386345Y639730D01*
X386257Y639439D01*
X386164Y639150D01*
X386152Y639094D01*
X386136Y639040D01*
X386080Y638742D01*
X386020Y638443D01*
X386016Y638396D01*
X386004Y638332D01*
X385952Y637613D01*
X385954Y637547D01*
X385951Y637500D01*
X385951Y632250D01*
X385968Y631946D01*
X385979Y631642D01*
X385988Y631587D01*
X385991Y631530D01*
X386041Y631230D01*
X386086Y630930D01*
X386101Y630875D01*
X386110Y630820D01*
X386194Y630526D01*
X386272Y630233D01*
X386292Y630181D01*
X386308Y630126D01*
X386423Y629845D01*
X386533Y629561D01*
X386559Y629511D01*
X386580Y629459D01*
X386726Y629192D01*
X386867Y628923D01*
X386899Y628876D01*
X386926Y628826D01*
X387100Y628577D01*
X387270Y628325D01*
X387306Y628282D01*
X387339Y628236D01*
X387539Y628007D01*
X387736Y627775D01*
X387777Y627737D01*
X387815Y627694D01*
X388039Y627490D01*
X388261Y627281D01*
X388306Y627247D01*
X388348Y627209D01*
X388594Y627031D01*
X388837Y626848D01*
X388885Y626819D01*
X388931Y626786D01*
X389195Y626636D01*
X389457Y626481D01*
X389509Y626458D01*
X389558Y626430D01*
X389837Y626310D01*
X390114Y626185D01*
X390168Y626168D01*
X390220Y626145D01*
X390511Y626057D01*
X390800Y625964D01*
X390856Y625952D01*
X390910Y625936D01*
X391208Y625880D01*
X391507Y625820D01*
X391554Y625816D01*
X391618Y625804D01*
X392337Y625752D01*
X392403Y625754D01*
X392450Y625751D01*
X414200Y625751D01*
X414504Y625768D01*
G37*
G36*
X414504Y562268D02*
X414504Y562268D01*
X414808Y562279D01*
X414863Y562288D01*
X414920Y562291D01*
X415220Y562341D01*
X415520Y562386D01*
X415575Y562401D01*
X415631Y562410D01*
X415924Y562494D01*
X416217Y562572D01*
X416269Y562592D01*
X416324Y562608D01*
X416605Y562723D01*
X416889Y562833D01*
X416939Y562859D01*
X416991Y562880D01*
X417258Y563026D01*
X417527Y563167D01*
X417574Y563199D01*
X417624Y563226D01*
X417873Y563400D01*
X418125Y563570D01*
X418168Y563606D01*
X418214Y563639D01*
X418443Y563839D01*
X418675Y564036D01*
X418713Y564077D01*
X418756Y564115D01*
X418960Y564339D01*
X419169Y564561D01*
X419203Y564606D01*
X419241Y564648D01*
X419419Y564894D01*
X419602Y565137D01*
X419631Y565185D01*
X419664Y565231D01*
X419814Y565495D01*
X419969Y565757D01*
X419992Y565809D01*
X420020Y565858D01*
X420140Y566137D01*
X420265Y566414D01*
X420282Y566468D01*
X420305Y566520D01*
X420393Y566811D01*
X420486Y567100D01*
X420498Y567156D01*
X420514Y567210D01*
X420570Y567508D01*
X420630Y567807D01*
X420634Y567854D01*
X420646Y567918D01*
X420698Y568637D01*
X420696Y568703D01*
X420699Y568750D01*
X420699Y574000D01*
X420682Y574304D01*
X420671Y574608D01*
X420662Y574663D01*
X420659Y574720D01*
X420609Y575020D01*
X420564Y575320D01*
X420549Y575375D01*
X420540Y575431D01*
X420456Y575724D01*
X420378Y576017D01*
X420358Y576069D01*
X420342Y576124D01*
X420227Y576405D01*
X420117Y576689D01*
X420091Y576739D01*
X420070Y576791D01*
X419924Y577058D01*
X419783Y577327D01*
X419751Y577374D01*
X419724Y577424D01*
X419550Y577673D01*
X419380Y577925D01*
X419344Y577968D01*
X419311Y578014D01*
X419111Y578243D01*
X418914Y578475D01*
X418873Y578513D01*
X418835Y578556D01*
X418611Y578760D01*
X418389Y578969D01*
X418344Y579003D01*
X418302Y579041D01*
X418057Y579219D01*
X417813Y579402D01*
X417765Y579431D01*
X417719Y579464D01*
X417455Y579614D01*
X417193Y579769D01*
X417141Y579792D01*
X417092Y579820D01*
X416813Y579940D01*
X416536Y580065D01*
X416482Y580082D01*
X416430Y580105D01*
X416139Y580193D01*
X415850Y580286D01*
X415794Y580298D01*
X415740Y580314D01*
X415442Y580370D01*
X415143Y580430D01*
X415096Y580434D01*
X415032Y580446D01*
X414313Y580498D01*
X414247Y580496D01*
X414200Y580499D01*
X392450Y580499D01*
X392146Y580482D01*
X391842Y580471D01*
X391787Y580462D01*
X391730Y580459D01*
X391430Y580409D01*
X391130Y580364D01*
X391075Y580349D01*
X391020Y580340D01*
X390726Y580256D01*
X390433Y580178D01*
X390381Y580158D01*
X390326Y580142D01*
X390045Y580027D01*
X389761Y579917D01*
X389711Y579891D01*
X389659Y579870D01*
X389392Y579724D01*
X389123Y579583D01*
X389076Y579551D01*
X389026Y579524D01*
X388777Y579350D01*
X388525Y579180D01*
X388482Y579144D01*
X388436Y579111D01*
X388207Y578911D01*
X387975Y578714D01*
X387937Y578673D01*
X387894Y578635D01*
X387690Y578411D01*
X387481Y578189D01*
X387447Y578144D01*
X387409Y578102D01*
X387231Y577857D01*
X387048Y577613D01*
X387019Y577565D01*
X386986Y577519D01*
X386836Y577255D01*
X386681Y576993D01*
X386658Y576941D01*
X386630Y576892D01*
X386510Y576613D01*
X386385Y576336D01*
X386368Y576282D01*
X386345Y576230D01*
X386257Y575939D01*
X386164Y575650D01*
X386152Y575594D01*
X386136Y575540D01*
X386080Y575242D01*
X386020Y574943D01*
X386016Y574896D01*
X386004Y574832D01*
X385952Y574113D01*
X385954Y574047D01*
X385951Y574000D01*
X385951Y568750D01*
X385968Y568446D01*
X385979Y568142D01*
X385988Y568087D01*
X385991Y568030D01*
X386041Y567730D01*
X386086Y567430D01*
X386101Y567375D01*
X386110Y567320D01*
X386194Y567026D01*
X386272Y566733D01*
X386292Y566681D01*
X386308Y566626D01*
X386423Y566345D01*
X386533Y566061D01*
X386559Y566011D01*
X386580Y565959D01*
X386726Y565692D01*
X386867Y565423D01*
X386899Y565376D01*
X386926Y565326D01*
X387100Y565077D01*
X387270Y564825D01*
X387306Y564782D01*
X387339Y564736D01*
X387539Y564507D01*
X387736Y564275D01*
X387777Y564237D01*
X387815Y564194D01*
X388039Y563990D01*
X388261Y563781D01*
X388306Y563747D01*
X388348Y563709D01*
X388594Y563531D01*
X388837Y563348D01*
X388885Y563319D01*
X388931Y563286D01*
X389195Y563136D01*
X389457Y562981D01*
X389509Y562958D01*
X389558Y562930D01*
X389837Y562810D01*
X390114Y562685D01*
X390168Y562668D01*
X390220Y562645D01*
X390511Y562557D01*
X390800Y562464D01*
X390856Y562452D01*
X390910Y562436D01*
X391208Y562380D01*
X391507Y562320D01*
X391554Y562316D01*
X391618Y562304D01*
X392337Y562252D01*
X392403Y562254D01*
X392450Y562251D01*
X414200Y562251D01*
X414504Y562268D01*
G37*
G36*
X1177554Y195268D02*
X1177554Y195268D01*
X1177858Y195279D01*
X1177913Y195288D01*
X1177970Y195291D01*
X1178270Y195341D01*
X1178570Y195386D01*
X1178625Y195401D01*
X1178681Y195410D01*
X1178974Y195494D01*
X1179267Y195572D01*
X1179319Y195592D01*
X1179374Y195608D01*
X1179655Y195723D01*
X1179939Y195833D01*
X1179989Y195859D01*
X1180041Y195880D01*
X1180308Y196026D01*
X1180577Y196167D01*
X1180624Y196199D01*
X1180674Y196226D01*
X1180923Y196400D01*
X1181175Y196570D01*
X1181218Y196606D01*
X1181264Y196639D01*
X1181493Y196839D01*
X1181725Y197036D01*
X1181763Y197077D01*
X1181806Y197115D01*
X1182010Y197339D01*
X1182219Y197561D01*
X1182253Y197606D01*
X1182291Y197648D01*
X1182469Y197894D01*
X1182652Y198137D01*
X1182681Y198185D01*
X1182714Y198231D01*
X1182864Y198495D01*
X1183019Y198757D01*
X1183042Y198809D01*
X1183070Y198858D01*
X1183190Y199137D01*
X1183315Y199414D01*
X1183332Y199468D01*
X1183355Y199520D01*
X1183443Y199811D01*
X1183536Y200100D01*
X1183548Y200156D01*
X1183564Y200210D01*
X1183620Y200508D01*
X1183680Y200807D01*
X1183684Y200854D01*
X1183696Y200918D01*
X1183748Y201637D01*
X1183746Y201703D01*
X1183749Y201750D01*
X1183749Y223500D01*
X1183732Y223804D01*
X1183721Y224108D01*
X1183712Y224163D01*
X1183709Y224220D01*
X1183659Y224520D01*
X1183614Y224820D01*
X1183599Y224875D01*
X1183590Y224931D01*
X1183506Y225224D01*
X1183428Y225517D01*
X1183408Y225569D01*
X1183392Y225624D01*
X1183277Y225905D01*
X1183167Y226189D01*
X1183141Y226239D01*
X1183120Y226291D01*
X1182974Y226558D01*
X1182833Y226827D01*
X1182801Y226874D01*
X1182774Y226924D01*
X1182600Y227173D01*
X1182430Y227425D01*
X1182394Y227468D01*
X1182361Y227514D01*
X1182161Y227743D01*
X1181964Y227975D01*
X1181923Y228013D01*
X1181885Y228056D01*
X1181661Y228260D01*
X1181439Y228469D01*
X1181394Y228503D01*
X1181352Y228541D01*
X1181107Y228719D01*
X1180863Y228902D01*
X1180815Y228931D01*
X1180769Y228964D01*
X1180505Y229114D01*
X1180243Y229269D01*
X1180191Y229292D01*
X1180142Y229320D01*
X1179863Y229440D01*
X1179586Y229565D01*
X1179532Y229582D01*
X1179480Y229605D01*
X1179189Y229693D01*
X1178900Y229786D01*
X1178844Y229798D01*
X1178790Y229814D01*
X1178492Y229870D01*
X1178193Y229930D01*
X1178146Y229934D01*
X1178082Y229946D01*
X1177363Y229998D01*
X1177297Y229996D01*
X1177250Y229999D01*
X1172000Y229999D01*
X1171696Y229982D01*
X1171392Y229971D01*
X1171337Y229962D01*
X1171280Y229959D01*
X1170980Y229909D01*
X1170680Y229864D01*
X1170625Y229849D01*
X1170570Y229840D01*
X1170276Y229756D01*
X1169983Y229678D01*
X1169931Y229658D01*
X1169876Y229642D01*
X1169595Y229527D01*
X1169311Y229417D01*
X1169261Y229391D01*
X1169209Y229370D01*
X1168942Y229224D01*
X1168673Y229083D01*
X1168626Y229051D01*
X1168576Y229024D01*
X1168327Y228850D01*
X1168075Y228680D01*
X1168032Y228644D01*
X1167986Y228611D01*
X1167757Y228411D01*
X1167525Y228214D01*
X1167487Y228173D01*
X1167444Y228135D01*
X1167240Y227911D01*
X1167031Y227689D01*
X1166997Y227644D01*
X1166959Y227602D01*
X1166781Y227357D01*
X1166598Y227113D01*
X1166569Y227065D01*
X1166536Y227019D01*
X1166386Y226755D01*
X1166231Y226493D01*
X1166208Y226441D01*
X1166180Y226392D01*
X1166060Y226113D01*
X1165935Y225836D01*
X1165918Y225782D01*
X1165895Y225730D01*
X1165807Y225439D01*
X1165714Y225150D01*
X1165702Y225094D01*
X1165686Y225040D01*
X1165630Y224742D01*
X1165570Y224443D01*
X1165566Y224396D01*
X1165554Y224332D01*
X1165502Y223613D01*
X1165504Y223547D01*
X1165501Y223500D01*
X1165501Y201750D01*
X1165518Y201446D01*
X1165529Y201142D01*
X1165538Y201087D01*
X1165541Y201030D01*
X1165591Y200730D01*
X1165636Y200430D01*
X1165651Y200375D01*
X1165660Y200320D01*
X1165744Y200026D01*
X1165822Y199733D01*
X1165842Y199681D01*
X1165858Y199626D01*
X1165973Y199345D01*
X1166083Y199061D01*
X1166109Y199011D01*
X1166130Y198959D01*
X1166276Y198692D01*
X1166417Y198423D01*
X1166449Y198376D01*
X1166476Y198326D01*
X1166650Y198077D01*
X1166820Y197825D01*
X1166856Y197782D01*
X1166889Y197736D01*
X1167089Y197507D01*
X1167286Y197275D01*
X1167327Y197237D01*
X1167365Y197194D01*
X1167589Y196990D01*
X1167811Y196781D01*
X1167856Y196747D01*
X1167898Y196709D01*
X1168144Y196531D01*
X1168387Y196348D01*
X1168435Y196319D01*
X1168481Y196286D01*
X1168745Y196136D01*
X1169007Y195981D01*
X1169059Y195958D01*
X1169108Y195930D01*
X1169387Y195810D01*
X1169664Y195685D01*
X1169718Y195668D01*
X1169770Y195645D01*
X1170061Y195557D01*
X1170350Y195464D01*
X1170406Y195452D01*
X1170460Y195436D01*
X1170758Y195380D01*
X1171057Y195320D01*
X1171104Y195316D01*
X1171168Y195304D01*
X1171887Y195252D01*
X1171953Y195254D01*
X1172000Y195251D01*
X1177250Y195251D01*
X1177554Y195268D01*
G37*
G36*
X650504Y125418D02*
X650504Y125418D01*
X650808Y125429D01*
X650863Y125438D01*
X650920Y125441D01*
X651220Y125491D01*
X651520Y125536D01*
X651575Y125551D01*
X651631Y125560D01*
X651924Y125644D01*
X652217Y125722D01*
X652269Y125742D01*
X652324Y125758D01*
X652605Y125873D01*
X652889Y125983D01*
X652939Y126009D01*
X652991Y126030D01*
X653258Y126176D01*
X653527Y126317D01*
X653574Y126349D01*
X653624Y126376D01*
X653873Y126550D01*
X654125Y126720D01*
X654168Y126756D01*
X654214Y126789D01*
X654443Y126989D01*
X654675Y127186D01*
X654713Y127227D01*
X654756Y127265D01*
X654960Y127489D01*
X655169Y127711D01*
X655203Y127756D01*
X655241Y127798D01*
X655419Y128044D01*
X655602Y128287D01*
X655631Y128335D01*
X655664Y128381D01*
X655814Y128645D01*
X655969Y128907D01*
X655992Y128959D01*
X656020Y129008D01*
X656140Y129287D01*
X656265Y129564D01*
X656282Y129618D01*
X656305Y129670D01*
X656393Y129961D01*
X656486Y130250D01*
X656498Y130306D01*
X656514Y130360D01*
X656570Y130658D01*
X656630Y130957D01*
X656634Y131004D01*
X656646Y131068D01*
X656698Y131787D01*
X656696Y131853D01*
X656699Y131900D01*
X656699Y153650D01*
X656682Y153954D01*
X656671Y154258D01*
X656662Y154313D01*
X656659Y154370D01*
X656609Y154670D01*
X656564Y154970D01*
X656549Y155025D01*
X656540Y155081D01*
X656456Y155374D01*
X656378Y155667D01*
X656358Y155719D01*
X656342Y155774D01*
X656227Y156055D01*
X656117Y156339D01*
X656091Y156389D01*
X656070Y156441D01*
X655924Y156708D01*
X655783Y156977D01*
X655751Y157024D01*
X655724Y157074D01*
X655550Y157323D01*
X655380Y157575D01*
X655344Y157618D01*
X655311Y157664D01*
X655111Y157893D01*
X654914Y158125D01*
X654873Y158163D01*
X654835Y158206D01*
X654611Y158410D01*
X654389Y158619D01*
X654344Y158653D01*
X654302Y158691D01*
X654057Y158869D01*
X653813Y159052D01*
X653765Y159081D01*
X653719Y159114D01*
X653455Y159264D01*
X653193Y159419D01*
X653141Y159442D01*
X653092Y159470D01*
X652813Y159590D01*
X652536Y159715D01*
X652482Y159732D01*
X652430Y159755D01*
X652139Y159843D01*
X651850Y159936D01*
X651794Y159948D01*
X651740Y159964D01*
X651442Y160020D01*
X651143Y160080D01*
X651096Y160084D01*
X651032Y160096D01*
X650313Y160148D01*
X650247Y160146D01*
X650200Y160149D01*
X644950Y160149D01*
X644646Y160132D01*
X644342Y160121D01*
X644287Y160112D01*
X644230Y160109D01*
X643930Y160059D01*
X643630Y160014D01*
X643575Y159999D01*
X643520Y159990D01*
X643226Y159906D01*
X642933Y159828D01*
X642881Y159808D01*
X642826Y159792D01*
X642545Y159677D01*
X642261Y159567D01*
X642211Y159541D01*
X642159Y159520D01*
X641892Y159374D01*
X641623Y159233D01*
X641576Y159201D01*
X641526Y159174D01*
X641277Y159000D01*
X641025Y158830D01*
X640982Y158794D01*
X640936Y158761D01*
X640707Y158561D01*
X640475Y158364D01*
X640437Y158323D01*
X640394Y158285D01*
X640190Y158061D01*
X639981Y157839D01*
X639947Y157794D01*
X639909Y157752D01*
X639731Y157507D01*
X639548Y157263D01*
X639519Y157215D01*
X639486Y157169D01*
X639336Y156905D01*
X639181Y156643D01*
X639158Y156591D01*
X639130Y156542D01*
X639010Y156263D01*
X638885Y155986D01*
X638868Y155932D01*
X638845Y155880D01*
X638757Y155589D01*
X638664Y155300D01*
X638652Y155244D01*
X638636Y155190D01*
X638580Y154892D01*
X638520Y154593D01*
X638516Y154546D01*
X638504Y154482D01*
X638452Y153763D01*
X638454Y153697D01*
X638451Y153650D01*
X638451Y131900D01*
X638468Y131596D01*
X638479Y131292D01*
X638488Y131237D01*
X638491Y131180D01*
X638541Y130880D01*
X638586Y130580D01*
X638601Y130525D01*
X638610Y130470D01*
X638694Y130176D01*
X638772Y129883D01*
X638792Y129831D01*
X638808Y129776D01*
X638923Y129495D01*
X639033Y129211D01*
X639059Y129161D01*
X639080Y129109D01*
X639226Y128842D01*
X639367Y128573D01*
X639399Y128526D01*
X639426Y128476D01*
X639600Y128227D01*
X639770Y127975D01*
X639806Y127932D01*
X639839Y127886D01*
X640039Y127657D01*
X640236Y127425D01*
X640277Y127387D01*
X640315Y127344D01*
X640539Y127140D01*
X640761Y126931D01*
X640806Y126897D01*
X640848Y126859D01*
X641094Y126681D01*
X641337Y126498D01*
X641385Y126469D01*
X641431Y126436D01*
X641695Y126286D01*
X641957Y126131D01*
X642009Y126108D01*
X642058Y126080D01*
X642337Y125960D01*
X642614Y125835D01*
X642668Y125818D01*
X642720Y125795D01*
X643011Y125707D01*
X643300Y125614D01*
X643356Y125602D01*
X643410Y125586D01*
X643708Y125530D01*
X644007Y125470D01*
X644054Y125466D01*
X644118Y125454D01*
X644837Y125402D01*
X644903Y125404D01*
X644950Y125401D01*
X650200Y125401D01*
X650504Y125418D01*
G37*
G36*
X650504Y23818D02*
X650504Y23818D01*
X650808Y23829D01*
X650863Y23838D01*
X650920Y23841D01*
X651220Y23891D01*
X651520Y23936D01*
X651575Y23951D01*
X651631Y23960D01*
X651924Y24044D01*
X652217Y24122D01*
X652269Y24142D01*
X652324Y24158D01*
X652605Y24273D01*
X652889Y24383D01*
X652939Y24409D01*
X652991Y24430D01*
X653258Y24576D01*
X653527Y24717D01*
X653574Y24749D01*
X653624Y24776D01*
X653873Y24950D01*
X654125Y25120D01*
X654168Y25156D01*
X654214Y25189D01*
X654443Y25389D01*
X654675Y25586D01*
X654713Y25627D01*
X654756Y25665D01*
X654960Y25889D01*
X655169Y26111D01*
X655203Y26156D01*
X655241Y26198D01*
X655419Y26444D01*
X655602Y26687D01*
X655631Y26735D01*
X655664Y26781D01*
X655814Y27045D01*
X655969Y27307D01*
X655992Y27359D01*
X656020Y27408D01*
X656140Y27687D01*
X656265Y27964D01*
X656282Y28018D01*
X656305Y28070D01*
X656393Y28361D01*
X656486Y28650D01*
X656498Y28706D01*
X656514Y28760D01*
X656570Y29058D01*
X656630Y29357D01*
X656634Y29404D01*
X656646Y29468D01*
X656698Y30187D01*
X656696Y30253D01*
X656699Y30300D01*
X656699Y52050D01*
X656682Y52354D01*
X656671Y52658D01*
X656662Y52713D01*
X656659Y52770D01*
X656609Y53070D01*
X656564Y53370D01*
X656549Y53425D01*
X656540Y53481D01*
X656456Y53774D01*
X656378Y54067D01*
X656358Y54119D01*
X656342Y54174D01*
X656227Y54455D01*
X656117Y54739D01*
X656091Y54789D01*
X656070Y54841D01*
X655924Y55108D01*
X655783Y55377D01*
X655751Y55424D01*
X655724Y55474D01*
X655550Y55723D01*
X655380Y55975D01*
X655344Y56018D01*
X655311Y56064D01*
X655111Y56293D01*
X654914Y56525D01*
X654873Y56563D01*
X654835Y56606D01*
X654611Y56810D01*
X654389Y57019D01*
X654344Y57053D01*
X654302Y57091D01*
X654057Y57269D01*
X653813Y57452D01*
X653765Y57481D01*
X653719Y57514D01*
X653455Y57664D01*
X653193Y57819D01*
X653141Y57842D01*
X653092Y57870D01*
X652813Y57990D01*
X652536Y58115D01*
X652482Y58132D01*
X652430Y58155D01*
X652139Y58243D01*
X651850Y58336D01*
X651794Y58348D01*
X651740Y58364D01*
X651442Y58420D01*
X651143Y58480D01*
X651096Y58484D01*
X651032Y58496D01*
X650313Y58548D01*
X650247Y58546D01*
X650200Y58549D01*
X644950Y58549D01*
X644646Y58532D01*
X644342Y58521D01*
X644287Y58512D01*
X644230Y58509D01*
X643930Y58459D01*
X643630Y58414D01*
X643575Y58399D01*
X643520Y58390D01*
X643226Y58306D01*
X642933Y58228D01*
X642881Y58208D01*
X642826Y58192D01*
X642545Y58077D01*
X642261Y57967D01*
X642211Y57941D01*
X642159Y57920D01*
X641892Y57774D01*
X641623Y57633D01*
X641576Y57601D01*
X641526Y57574D01*
X641277Y57400D01*
X641025Y57230D01*
X640982Y57194D01*
X640936Y57161D01*
X640707Y56961D01*
X640475Y56764D01*
X640437Y56723D01*
X640394Y56685D01*
X640190Y56461D01*
X639981Y56239D01*
X639947Y56194D01*
X639909Y56152D01*
X639731Y55907D01*
X639548Y55663D01*
X639519Y55615D01*
X639486Y55569D01*
X639336Y55305D01*
X639181Y55043D01*
X639158Y54991D01*
X639130Y54942D01*
X639010Y54663D01*
X638885Y54386D01*
X638868Y54332D01*
X638845Y54280D01*
X638757Y53989D01*
X638664Y53700D01*
X638652Y53644D01*
X638636Y53590D01*
X638580Y53292D01*
X638520Y52993D01*
X638516Y52946D01*
X638504Y52882D01*
X638452Y52163D01*
X638454Y52097D01*
X638451Y52050D01*
X638451Y30300D01*
X638468Y29996D01*
X638479Y29692D01*
X638488Y29637D01*
X638491Y29580D01*
X638541Y29280D01*
X638586Y28980D01*
X638601Y28925D01*
X638610Y28870D01*
X638694Y28576D01*
X638772Y28283D01*
X638792Y28231D01*
X638808Y28176D01*
X638923Y27895D01*
X639033Y27611D01*
X639059Y27561D01*
X639080Y27509D01*
X639226Y27242D01*
X639367Y26973D01*
X639399Y26926D01*
X639426Y26876D01*
X639600Y26627D01*
X639770Y26375D01*
X639806Y26332D01*
X639839Y26286D01*
X640039Y26057D01*
X640236Y25825D01*
X640277Y25787D01*
X640315Y25744D01*
X640539Y25540D01*
X640761Y25331D01*
X640806Y25297D01*
X640848Y25259D01*
X641094Y25081D01*
X641337Y24898D01*
X641385Y24869D01*
X641431Y24836D01*
X641695Y24686D01*
X641957Y24531D01*
X642009Y24508D01*
X642058Y24480D01*
X642337Y24360D01*
X642614Y24235D01*
X642668Y24218D01*
X642720Y24195D01*
X643011Y24107D01*
X643300Y24014D01*
X643356Y24002D01*
X643410Y23986D01*
X643708Y23930D01*
X644007Y23870D01*
X644054Y23866D01*
X644118Y23854D01*
X644837Y23802D01*
X644903Y23804D01*
X644950Y23801D01*
X650200Y23801D01*
X650504Y23818D01*
G37*
D10*
X1146200Y673100D03*
X1165200Y673100D03*
X1247800Y673100D03*
X1266800Y673100D03*
X955700Y228600D03*
X974700Y228600D03*
X1197000Y673100D03*
X1216000Y673100D03*
X1298600Y673100D03*
X1317600Y673100D03*
D11*
X1189740Y242060D03*
X1159760Y242060D03*
X1174750Y242050D03*
D12*
X1238250Y206400D03*
X1238250Y225400D03*
X1219200Y206400D03*
X1219200Y225400D03*
D11*
X662690Y172210D03*
X632710Y172210D03*
X647700Y172200D03*
D12*
X628650Y193700D03*
X628650Y212700D03*
X660400Y193700D03*
X660400Y212700D03*
D11*
X662690Y70610D03*
X632710Y70610D03*
X647700Y70600D03*
D12*
X628650Y92100D03*
X628650Y111100D03*
X660400Y92100D03*
X660400Y111100D03*
D13*
X527050Y237550D03*
X514350Y237550D03*
X501650Y237550D03*
X488950Y237550D03*
X488950Y181550D03*
X501650Y181550D03*
X514350Y181550D03*
X527050Y181550D03*
D12*
X488950Y276200D03*
X488950Y257200D03*
X508000Y276200D03*
X508000Y257200D03*
D14*
X423000Y120650D03*
X339000Y120650D03*
D15*
X400050Y397600D03*
X400050Y313600D03*
D16*
X341630Y354076D03*
X341630Y425450D03*
D10*
X320700Y279400D03*
X339700Y279400D03*
X339700Y330200D03*
X320700Y330200D03*
X339700Y304800D03*
X320700Y304800D03*
X447700Y266700D03*
X466700Y266700D03*
X447700Y215900D03*
X466700Y215900D03*
X447700Y241300D03*
X466700Y241300D03*
D17*
X1307200Y110500D03*
X1307200Y143500D03*
X1258200Y110500D03*
X1258200Y143500D03*
D10*
X1317600Y88900D03*
X1298600Y88900D03*
X1152500Y158750D03*
X1133500Y158750D03*
D17*
X1307200Y174000D03*
X1307200Y207000D03*
X1258200Y174000D03*
X1258200Y207000D03*
D10*
X1317600Y241300D03*
X1298600Y241300D03*
D18*
X373890Y586490D03*
X373890Y556510D03*
X373900Y571500D03*
D10*
X320700Y533400D03*
X339700Y533400D03*
X339700Y558800D03*
X320700Y558800D03*
X320700Y584200D03*
X339700Y584200D03*
D18*
X373890Y649990D03*
X373890Y620010D03*
X373900Y635000D03*
D10*
X320700Y609600D03*
X339700Y609600D03*
X339700Y635000D03*
X320700Y635000D03*
X320700Y660400D03*
X339700Y660400D03*
D12*
X323850Y219050D03*
X323850Y200050D03*
X323850Y257150D03*
X323850Y238150D03*
D10*
X1152500Y139700D03*
X1133500Y139700D03*
X1152500Y120650D03*
X1133500Y120650D03*
X955700Y38100D03*
X974700Y38100D03*
X1101700Y38100D03*
X1082700Y38100D03*
D12*
X1054100Y238100D03*
X1054100Y219100D03*
X952500Y60350D03*
X952500Y79350D03*
X1104900Y66700D03*
X1104900Y85700D03*
X1003300Y219100D03*
X1003300Y238100D03*
D10*
X504800Y19050D03*
X485800Y19050D03*
D19*
X662110Y234950D03*
X662110Y247650D03*
X662110Y260350D03*
X662110Y273050D03*
X607890Y273050D03*
X607890Y260350D03*
X607890Y247650D03*
X607890Y234950D03*
D10*
X447700Y190500D03*
X466700Y190500D03*
D12*
X596900Y193700D03*
X596900Y212700D03*
X565150Y193700D03*
X565150Y212700D03*
D20*
X370700Y470650D03*
X393700Y470650D03*
X416700Y470650D03*
D21*
X393700Y532640D03*
D10*
X415900Y444500D03*
X396900Y444500D03*
X339700Y508000D03*
X320700Y508000D03*
X339700Y482600D03*
X320700Y482600D03*
D22*
X350770Y457200D03*
X322330Y457200D03*
D12*
X349250Y200050D03*
X349250Y219050D03*
D23*
X1018200Y685800D03*
X1039200Y685800D03*
D10*
X1082650Y685800D03*
X1063650Y685800D03*
D24*
X366300Y50800D03*
X433800Y70800D03*
X433800Y30800D03*
X366300Y70800D03*
X366300Y30800D03*
D25*
X609600Y90420D03*
X609600Y61980D03*
X609600Y112780D03*
X609600Y141220D03*
D10*
X403200Y673100D03*
X384200Y673100D03*
D22*
X747780Y152400D03*
X776220Y152400D03*
X747780Y127000D03*
X776220Y127000D03*
D26*
X533400Y292100D03*
D27*
X831850Y112900D03*
X831850Y64900D03*
D28*
X801500Y609600D03*
X849500Y609600D03*
X1230500Y139700D03*
X1182500Y139700D03*
D27*
X1384300Y547500D03*
X1384300Y595500D03*
D29*
X1109980Y685800D03*
X1125220Y685800D03*
D10*
X1203300Y184150D03*
X1184300Y184150D03*
X1152500Y177800D03*
X1133500Y177800D03*
X1152500Y196850D03*
X1133500Y196850D03*
D23*
X829650Y25400D03*
X808650Y25400D03*
D10*
X746150Y25400D03*
X765150Y25400D03*
D29*
X725170Y25400D03*
X709930Y25400D03*
D10*
X403200Y603250D03*
X384200Y603250D03*
X320700Y685800D03*
X339700Y685800D03*
D29*
X1442720Y215900D03*
X1427480Y215900D03*
M02*
